<svg xmlns="http://www.w3.org/2000/svg" width="608" height="255" viewBox="0 0 608 255">
  <g id="firstview-copy" transform="translate(-83 -198)">
    <rect id="長方形_4692" data-name="長方形 4692" width="353" height="119" transform="translate(83 198)" fill="#fff"/>
    <rect id="長方形_4763" data-name="長方形 4763" width="608" height="119" transform="translate(83 334)" fill="#fff"/>
    <path id="パス_2937" data-name="パス 2937" d="M9.072,1.89v-50.4H4.536V1.89Zm30.366,0V-44.667H49.77v-3.906H24.633v3.906H34.965V1.89ZM97.4-1.575a15.666,15.666,0,0,1-2.961.252c-14.805,0-17.136-9.7-17.136-15.687,0-9.324,5.04-18.963,12.1-23.436,2.079-1.323,4.158-1.638,7.938-1.638l3.213-.063-.315-4.221c-9.954.756-29.043,1.071-37.107,1.386l.315,4.473c6.363-.378,15.939-.882,22.239-1.449C73.9-33.075,73.206-19.215,73.206-16.695c0,11.466,7.371,19.593,20.349,19.782.945,0,1.953,0,2.835-.063Zm1.386-22.617a87.776,87.776,0,0,0-5.607-11.781L90.4-34.587a80.284,80.284,0,0,1,5.481,11.97Zm5.859-2.772A72.431,72.431,0,0,0,98.784-38.43l-2.709,1.323a88.468,88.468,0,0,1,5.733,11.781ZM156.681,2.961V-1.071h-17.7l.063-15.939h12.915v-3.969H139.041l.063-14.364h14.931v-4.032H139.1l.063-14.364H135.2l-.063,14.364h-8.946a103.28,103.28,0,0,0,2.52-10.584l-3.717-.882c-1.512,8.757-4.6,18.144-8.379,24.318l3.213,2.646a74.6,74.6,0,0,0,5.1-11.466h10.206l-.063,14.364H121.653v3.969h13.419l-.063,15.939H116.361V2.961Zm46.305-5.8a49.5,49.5,0,0,1-12.915,1.764c-9.639,0-11.781-4.788-11.781-7.875,0-5.985,8.253-6.993,12.222-6.993,2.205,0,9.324.252,12.915,3.717l2.9-3.591A79.49,79.49,0,0,1,198.072-28.6c2.961-.567,6.237-1.134,9.324-1.953l-.756-3.906c-3.276.882-6.867,1.638-10.269,2.2-1.323-2.457-2.457-5.229-3.591-7.749,3.717-.5,7.623-1.008,11.466-1.89l-.567-3.969a87.156,87.156,0,0,1-12.348,2.2c-1.2-2.772-2.268-5.67-3.15-8.316L184.4-50.9c1.008,2.52,2.016,5.418,3.024,7.749a82.688,82.688,0,0,1-8.82.441c-1.827,0-3.654-.063-5.418-.126l.693,3.969c1.134.063,2.268.063,3.4.063,3.843,0,7.812-.252,11.655-.63,1.2,2.583,2.394,5.355,3.654,7.812a113.753,113.753,0,0,1-15.561,1.134c-1.512,0-2.9-.063-4.284-.126l.5,4.095h2.142a142.481,142.481,0,0,0,18.837-1.449c1.764,3.213,3.78,6.741,5.8,9.765a36.154,36.154,0,0,0-9.009-1.26h-.5c-8.568,0-16.443,2.835-16.443,10.9,0,8.82,9.261,11.718,17.2,11.718a49.839,49.839,0,0,0,11.34-1.386Zm39.879,1.071c0-7.812-3.087-12.726-9.2-12.726-4.221,0-7.623,2.583-7.623,7.371,0,6.615,6.867,10.458,14.742,10.458,8.883,0,17.829-5.229,17.829-18.333,0-11.592-9.261-13.923-13.608-13.923h-.441c-4.6,0-7.371.945-11.466,3.465h-.126c-.126,0-.189,0-.189-.063s.063-.126.189-.252c1.953-1.638,4.41-3.4,7.245-6.111,0,0,10.521-10.017,12.978-12.348l-.063-3.717-25.011.126v4.032c1.449-.063,11.844-.189,13.293-.252,2.331-.063,6.489-.189,6.678-.252-.5.693-17.577,17.136-20.349,19.53A72.378,72.378,0,0,1,221.76-20.1l3.213,3.4c8.442-8.694,17.325-8.757,18.963-8.757,6.489,0,10.395,4.032,10.395,10.71,0,9.135-6.3,13.923-11.466,14.3ZM239.211-.315C234.36-.378,229.7-2.9,229.7-7.182a3.691,3.691,0,0,1,3.843-3.969C239.085-11.088,239.211-3.213,239.211-.315Zm47.817,1.953a57.691,57.691,0,0,0-9.387-13.293l-3.15,2.331a54.881,54.881,0,0,1,8.694,13.86Z" transform="translate(107 283)" fill="#222"/>
    <path id="パス_2936" data-name="パス 2936" d="M42.4-3.717a54.748,54.748,0,0,0-8.5-8.82c0-5.1-.063-13.86-.126-22.05h7.371v-3.906H33.768V-50.211H29.736c0,3.465.126,7.5.189,11.781H14.742v3.843H29.988l.189,20.349a13.918,13.918,0,0,0-6.363-1.449c-4.725,0-9.765,3.276-9.765,9.2,0,5.418,4.725,9.261,9.954,9.261,6.678,0,9.261-4.851,9.7-10.521A50.669,50.669,0,0,1,40.068.315ZM10.143,1.953A135.654,135.654,0,0,1,9.009-16.38a221.012,221.012,0,0,1,2.457-32.7l-4.221-.441A299.743,299.743,0,0,0,5.04-14.049,157.289,157.289,0,0,0,5.922,2.457Zm20.034-11.97c0,6.048-2.331,8.946-6.174,8.946-3.78,0-6.426-2.2-6.426-5.481,0-2.772,2.079-5.544,6.552-5.544A9.851,9.851,0,0,1,30.177-10.017Zm60.669-9.639C88.263-12.411,82.845-.63,73.269-.63c-3.024,0-6.993-1.7-6.993-11.529,0-9.2.315-26.208.63-38.115l-4.662-.252c0,11.277-.252,28.665-.252,38.808,0,7.308,2.52,15.372,11.088,15.372,10.584,0,17.388-9.765,21.42-19.971Zm-.63-16.065A66.739,66.739,0,0,0,82.53-47.25l-2.835,1.764a100.733,100.733,0,0,1,7.623,11.907ZM84.1-31.626a91.025,91.025,0,0,0-7.5-11.781l-2.9,1.7a85.147,85.147,0,0,1,7.308,12.159ZM144.333-2.835a57.834,57.834,0,0,0-12.915-10.584V-25.7h11.655v-3.843H131.355c0-3.276-.063-6.741-.063-9.828h13.356v-3.906H131.292l-.063-8.505-4.1.063c0,1.638.126,4.725.126,8.442l-16.569.063v3.843h16.632l.189,9.828H112.077V-25.7h15.435c.063,3.969.126,7.938.126,10.9a17.182,17.182,0,0,0-6.3-1.2c-5.859,0-10.773,3.969-10.773,9.576,0,4.158,2.646,10.206,10.773,10.206,6.111,0,10.017-4.662,10.08-12.726a50.206,50.206,0,0,1,10.395,10.4Zm-16.7-7.182c0,5.8-2.079,9.891-6.489,9.891-3.213,0-6.867-1.827-6.867-6.552,0-3.528,3.465-5.67,6.867-5.67a13.543,13.543,0,0,1,6.489,1.575ZM171.8,4.536c19.845-2.583,24.318-17.01,24.318-30.366,0-10.647-1.386-23.373-10.647-23.373-7.56,0-12.222,11.088-14.868,21.357.189-4.536,1.386-13.482,2.772-22.176l-4.221-.252a264.171,264.171,0,0,0-2.205,29.862v.756c0,2.457.126,4.662.315,6.8l3.969.063c0-.63-.063-1.26-.063-1.953,0-9.954,6.741-30.744,14.049-30.744,5.922,0,6.741,10.647,6.741,18.585,0,7.623-.126,25.893-22.491,27.342Zm62.748-.315C253.26-.63,254.142-18.27,254.142-23.94c0-11.655-4.725-24.318-18.27-24.318-14.112,0-21.042,18.27-21.042,29.61,0,12.033,4.662,18.333,8.568,18.333,2.079,0,4.347-1.2,6.048-4.851,2.772-5.859,5.8-19.341,7.623-39.5,10.017.693,13.041,11.34,13.041,21.042C250.11-8.757,241.668-1.26,232.281.5ZM233.415-44.6c-.567,6.174-3.906,40.068-10.017,40.068-1.575,0-4.914-4.284-4.914-13.608C218.484-32.76,226.044-43.218,233.415-44.6ZM297.3,5.8c8.568-.567,9.7-1.323,9.7-16.317v-7.56H289.233a31.616,31.616,0,0,0,2.079-4.725h17.01V-26.46h-27.4v3.654h6.993a19.617,19.617,0,0,1-6.93,9.387l-.126-2.52c-1.449,1.26-3.024,2.457-4.6,3.591V-31.5h4.6v-3.969l-4.6.063V-51.912h-3.591v16.506h-4.725V-31.5h4.725V-9.954a47.018,47.018,0,0,1-5.292,2.709l1.323,3.969A78.273,78.273,0,0,0,280.287-10.9l1.134,1.764a26.23,26.23,0,0,0,5.481-5.418H291A25.521,25.521,0,0,1,280.35-2.9L282.933.063a30.731,30.731,0,0,0,11.4-14.616h3.78c-1.953,6.867-5.355,12.789-11.781,17.514L289.044,5.8a36.32,36.32,0,0,0,12.348-20.349h2.268v5.985c0,10.143-.63,10.4-7.812,10.4Zm8.064-36.225V-51.345H283.878v20.916Zm-3.4-3.4H287.343v-5.481h14.616Zm0-8.694H287.343V-47.88h14.616Zm54.5,40.887A50.647,50.647,0,0,1,345.618-.315c-8.631,0-10.962-3.528-10.962-6.741,0-5.8,6.8-10.647,9.513-12.411V-18.4c0,3.213-.189,6.741-.441,9.7l4.1-.189c.126-3.465.252-6.867.252-9.576,0-1.071,0-2.016-.063-2.835a92.961,92.961,0,0,1,13.419-5.355l-1.638-4.221c-5.607,2.268-8.064,3.4-11.907,5.292-.5-6.615-3.339-8.442-6.615-8.442-3.465,0-6.3,2.457-8.883,5.292a94.6,94.6,0,0,0,6.3-12.411l16.065-.063v-3.717H339.885c.756-1.953,1.449-3.969,2.016-5.922l-4.284-.756c-.441,1.89-1.071,4.158-1.89,6.741H323.19v3.717h11.466c-3.087,7.938-7.875,16.947-12.663,22.743l3.717,2.52c3.4-5.607,9.009-14.8,14.805-14.8,2.709,0,3.528,2.457,3.717,6.93C337.176-19.53,330.75-13.419,330.75-7.056c0,4.473,2.079,10.9,15.372,10.9A52.8,52.8,0,0,0,356.265,2.9ZM383.229.315c17.829-1.386,29.358-8.757,29.358-25.452,0-10.9-5.67-17.892-16.947-17.955-7.371,0-16.191,2.331-23.184,4.1l1.512,4.536c6.993-2.016,14.8-4.473,21.357-4.473h.189c6.363,0,12.663,3.276,12.663,13.608,0,14.364-10.143,20.349-26.964,21.294Zm77.8.5c-5.544-6.363-11.025-12.1-23.562-22.68a3.984,3.984,0,0,1-1.764-2.9,4.442,4.442,0,0,1,1.638-2.961c1.575-1.449,4.158-3.465,9.639-8.19a144.3,144.3,0,0,0,12.726-11.718l-3.591-3.654a96.225,96.225,0,0,1-11.97,12.348c-4.284,3.843-8.127,6.867-10.458,9.135q-2.646,2.646-2.646,5.1c0,1.764,1.008,3.528,2.961,5.292C442.134-12.1,450.45-5.1,457.38,4.536ZM498.96-1.764c0-7.812-3.087-12.726-9.2-12.726-4.221,0-7.623,2.583-7.623,7.371,0,6.615,6.867,10.458,14.742,10.458,8.883,0,17.829-5.229,17.829-18.333,0-11.592-9.261-13.923-13.608-13.923h-.441c-4.6,0-7.371.945-11.466,3.465h-.126c-.126,0-.189,0-.189-.063s.063-.126.189-.252c1.953-1.638,4.41-3.4,7.245-6.111,0,0,10.521-10.017,12.978-12.348l-.063-3.717-25.011.126v4.032c1.449-.063,11.844-.189,13.293-.252,2.331-.063,6.489-.189,6.678-.252-.5.693-17.577,17.136-20.349,19.53a72.373,72.373,0,0,1-5.985,4.662l3.213,3.4c8.442-8.694,17.325-8.757,18.963-8.757,6.489,0,10.395,4.032,10.395,10.71,0,9.135-6.3,13.923-11.466,14.3ZM495.306-.315c-4.851-.063-9.513-2.583-9.513-6.867a3.691,3.691,0,0,1,3.843-3.969C495.18-11.088,495.306-3.213,495.306-.315ZM537.831,4.41c3.843,0,6.615-3.528,6.615-8.82,0-5.355-2.709-8.883-6.615-8.883s-6.678,3.528-6.678,8.883C531.153.882,533.925,4.41,537.831,4.41Zm0-3.591c-2.079,0-3.528-2.016-3.528-5.292,0-3.15,1.449-5.229,3.528-5.229,2.016,0,3.465,2.079,3.465,5.229C541.3-1.2,539.847.819,537.831.819Z" transform="translate(107 419)" fill="#222"/>
  </g>
</svg>
