<svg xmlns="http://www.w3.org/2000/svg" width="115.797" height="38.921" viewBox="0 0 115.797 38.921">
  <g id="itnav-logo" transform="translate(0 0)">
    <rect id="長方形_4755" data-name="長方形 4755" width="9.339" height="5.523" transform="translate(46.12 23.311)" fill="#3e9f78"/>
    <path id="パス_2877" data-name="パス 2877" d="M145.693.189V39.033h5.524V25.7l3.273,3.274,2.288-5.523-5.56-5.561V.189Z" transform="translate(-108.367 -0.141)" fill="#1a1311"/>
    <path id="パス_2878" data-name="パス 2878" d="M250.048.231V12.366h-9.814v5.523h9.814v11.9l-5.4,5.4,3.9,3.9,7.014-7.011,0,0h0V17.889h9.248V12.366h-9.248V.231Z" transform="translate(-178.687 -0.172)" fill="#1a1311"/>
    <path id="パス_2879" data-name="パス 2879" d="M370.484.189H355.519V5.712h11.335V29.756l-5.4,5.4,3.905,3.9,7.012-7.011,0,0h0V.189Z" transform="translate(-264.437 -0.141)" fill="#1a1311"/>
    <rect id="長方形_4756" data-name="長方形 4756" width="2.762" height="5.535" transform="translate(109.078 23.305)" fill="#3e9f78"/>
    <rect id="長方形_4757" data-name="長方形 4757" width="2.762" height="5.535" transform="translate(113.035 23.305)" fill="#3e9f78"/>
    <path id="パス_2880" data-name="パス 2880" d="M22.811,0,5.071,17.739H0v5.523H7.352l0,0L12.624,18v20.9h5.523V12.474l8.569-8.569Z" fill="#1a1311"/>
  </g>
</svg>
