<svg xmlns="http://www.w3.org/2000/svg" width="14.264" height="14.264" viewBox="0 0 14.264 14.264"><defs><style>.a,.b{fill:#fff;}.a{fill-rule:evenodd;}</style></defs><g transform="translate(0.5 0.5)"><path class="a" d="M90.632,6492.265l-.952-.924,5.045-5.045H84v-1.327H94.726l-5.031-5.031.938-.937,6.632,6.632-6.632,6.632" transform="translate(-84 -6479)"/><path class="b" d="M90.632,6492.765a.5.5,0,0,1-.348-.141l-.952-.924a.5.5,0,0,1-.005-.712l4.191-4.191H84a.5.5,0,0,1-.5-.5v-1.327a.5.5,0,0,1,.5-.5h9.518l-4.178-4.178a.5.5,0,0,1,0-.707l.938-.937a.5.5,0,0,1,.707,0l6.632,6.632a.5.5,0,0,1,0,.707l-6.632,6.632A.5.5,0,0,1,90.632,6492.765Zm-.239-1.429.234.228,5.93-5.931-5.925-5.925-.231.23,4.678,4.678a.5.5,0,0,1-.354.854H84.5v.327H94.726a.5.5,0,0,1,.354.854Z" transform="translate(-84 -6479)"/></g></svg>