<svg xmlns="http://www.w3.org/2000/svg" xmlns:xlink="http://www.w3.org/1999/xlink" width="240" height="202" viewBox="0 0 240 202">
  <defs>
    <clipPath id="clip-path">
      <rect id="長方形_4746" data-name="長方形 4746" width="202" height="152" transform="translate(472 3488)" fill="#fff" stroke="#707070" stroke-width="1"/>
    </clipPath>
  </defs>
  <g id="top-goodpoint-1" transform="translate(-435 -3410)">
    <g id="マスクグループ_8" data-name="マスクグループ 8" transform="translate(0 -28)" clip-path="url(#clip-path)">
      <g id="グループ_1941" data-name="グループ 1941" transform="translate(472.056 3488.205)">
        <path id="パス_2806" data-name="パス 2806" d="M1340.824,823.894c-5.152,1.533-10.422,2.62-15.691,3.849,0-3,.856-6.207-.214-8.562-.856-1.712-2.568-3.211-4.067-5.137-1.76-2.817-1.494-5.923-.749-8.96a90.291,90.291,0,0,0-9.739-4.525c-13.072-5.486-15.931-4.06-19.853-7.607s-6.661-12.524-9.275-9.66-11,6.732-11.712,11.321-2.819,18.008-5.159,18.078-2.243-15.514-3.754-17.8-16-11.068-16.589-10.736-6.995,10.026-10.049,10.756-12.318,4.989-20.334,7.091c-1.408.37-2.688.753-3.855,1.186,1.087,2.7,1.909,5.372,1.263,8.286a16.549,16.549,0,0,1-4.067,7.92c-1.712,1.712-.856,6.421-.214,9.846-5.5-1.426-11.387-1.3-16.37-4.056a92.469,92.469,0,0,1-9.5-1.017c-.541,2.693-.946,5.4-1.522,8.284-1.712,8.348-3.425,15.839-5.351,23.973-.09.225-.18.439-.27.649,31,.586,157.023-.965,181.984-1.282-1.837-10.687-4.279-21.289-5.9-32.008C1346.648,823.847,1343.4,823.9,1340.824,823.894Z" transform="translate(-1163.748 -692.613)" fill="#2abc8f"/>
        <path id="パス_2807" data-name="パス 2807" d="M1495.026,381.711a2.579,2.579,0,0,0-.7-.691,24.626,24.626,0,0,0-1.717-3.416,2.56,2.56,0,0,0-.235-3.155,19.45,19.45,0,0,0-5.625-4.78,12.144,12.144,0,0,0-4.544-1.65,11.353,11.353,0,0,0-2.23-1.357,2.81,2.81,0,0,0-1.907-.182c-.1-.039-.195-.075-.293-.111-.015-.009-.03-.019-.047-.028a2.344,2.344,0,0,0-.614-.218l-.058-.019a2.707,2.707,0,0,0-.614-.4,24.2,24.2,0,0,0-6.291-2.08,5,5,0,0,0-3.245-1.834c-3.57-.535-7.149,1.182-10.249,2.75-6.177,3.127-6.413,5.111-11.691,9.589-.559.473-6.378,4.253-9.418,3.211-.569-.195-2.057,1.126,1.07,3.553a3.784,3.784,0,0,0,4.495,0,35.5,35.5,0,0,0-5.137,15.925,2.587,2.587,0,0,0,.612,1.663,30.441,30.441,0,0,0,.443,6.4c.5,2.487,4.418,2.432,4.953,0,.283-1.284.6-2.511.983-3.694,3.534-4.289,7.282-8.395,10.758-12.725.173.18-1.6,4.919-2.307,6.092-1.712,2.847-.711,3.438,3.181,1.886a47.54,47.54,0,0,0,4.613-3.459c2.753-2.19,5.079-6.67,5.291-6.879a9.872,9.872,0,0,1-1.293,5.171c-1.8,4.262-2.243,5.7,2.958,4.23,5.732-1.625,10.182-6.4,14.375-10.653a77.67,77.67,0,0,1,5.46,6.841c.792,1.119,1.648,2.361,2.427,3.664h0a73.714,73.714,0,0,1,1.5,13.429c-.006.077-.011.154-.019.233a2.444,2.444,0,0,0,.041.7c.021,1.486,1.117,5.45,1.068,6.922-.109,3.313,2.956.824,3.065-2.481.051-1.582,1.019-3.172.987-4.762a2.081,2.081,0,0,0,.848-1.3C1497.538,400.275,1499.889,388.817,1495.026,381.711Z" transform="translate(-1368.838 -361.684)"/>
        <g id="グループ_1940" data-name="グループ 1940" transform="translate(0 0.001)">
          <path id="パス_2808" data-name="パス 2808" d="M1241.483,500.389a7.985,7.985,0,0,0-3.294.854c-4.9,2.432-10.148,3.986-15.195,6.047-2.434.993-4.878,1.967-7.455,3,0,1.578-.088,3.155.019,4.718.173,2.506-.824,4.677-1.941,6.753a15.063,15.063,0,0,1-2.71,2.819c-.066,2.4-.338,5.007-.182,7.639.942.653,1.956.417,2.879.593,1.445.276,1.961.953,1.727,2.412-.486,3.033-1.068,6.053-1.475,9.1s-.631,6.126-.965,9.187a11.573,11.573,0,0,1-.456,2.312c-.321.98-1.027,1.37-1.781,1.141a1.42,1.42,0,0,1-.914-1.7c.064-.61.229-1.209.313-1.819.7-5.143,1.4-10.285,2.072-15.435a20.1,20.1,0,0,0,.013-2.447c-8.868-1.98-17.466-4.8-26.426-6.126-.937,1.755-.927,3.551-1.254,5.25-.85,4.405-1.6,8.829-2.389,13.247-.246,1.385-.456,2.778-.741,4.157a6.452,6.452,0,0,1-.606,1.712,1.2,1.2,0,0,1-1.38.526,1.1,1.1,0,0,1-.942-1.117,14.573,14.573,0,0,1,.225-2.883c.785-3.878,1.706-7.731,2.442-11.618.623-3.281,1.087-6.595,1.578-9.9.293-1.982,1.312-2.778,3.245-2.352,1.884.415,3.756.873,5.636,1.314a42.633,42.633,0,0,0,.653-11.567c-1.126-1.524-2.406-3.2-3.628-4.923-1.07-1.5-2.063-3.061-3.11-4.581-2.611-3.795-2.239-5.666-1.139-10.248a32.837,32.837,0,0,1,4.266-9.337,21.67,21.67,0,0,1,4.139-4.765,6.111,6.111,0,0,1,5.73-1.1,2.585,2.585,0,0,1,1.357,1.145c.586.972,1.01,2.042,1.537,3.151,1.057.4,2.53-.124,3.343,1.051.64.922,1.113,1.958,1.755,3.112a6.772,6.772,0,0,0,1.109-.638c1.282-1.06,2.37-1.143,4.112.013a6.826,6.826,0,0,1,2.855,4,7.049,7.049,0,0,1,.281,1.556,25.523,25.523,0,0,0,.567,5.751,5.047,5.047,0,0,1-.569,3.331c-.428.959-.89,1.9-1.411,3,.516.276.942.687,1.361.683a5.244,5.244,0,0,0,1.755-.516c7.427-2.982,15.056-5.454,22.305-8.889a4.386,4.386,0,0,0,2.063-1.9c1.7-2.979,3.525-5.891,5.178-8.9.473-.858,1.293-1.137,1.922-1.742.043-.253.092-.507.126-.764a5.886,5.886,0,0,0-2.1-5.833c-1.856-1.55-2.759-3.846-3.515-6.115-.638-1.916-1.152-3.872-1.749-5.9-3.4-1.128-5.4-3.729-6.689-6.929a17.759,17.759,0,0,1-1.269-10.328,9.165,9.165,0,0,1,2.07-4.482c.287-.323.584-.64.948-1.038-.306-1.025-.593-2.031-.908-3.027a28.361,28.361,0,0,1-.957-13.819A18.49,18.49,0,0,1,1236.99,420a4.615,4.615,0,0,1,1.346-1.207,1.264,1.264,0,0,1,1.616.5,1.112,1.112,0,0,1-.026,1.453c-.158.208-.362.381-.535.58a11.708,11.708,0,0,0-2.384,4.375,25.031,25.031,0,0,0,.852,16.053c.893-1.712,1.646-3.159,2.417-4.643.263.235.471.334.473.437q.135,6.466.227,12.937a5.339,5.339,0,0,1-.12,1.308,1.133,1.133,0,0,1-1.115.94,1.1,1.1,0,0,1-1.16-.886,17.411,17.411,0,0,1-.244-2.611,2.113,2.113,0,0,0-1.481-2.13,5.639,5.639,0,0,0-.953,1.055,9.587,9.587,0,0,0-.841,5.923,17.054,17.054,0,0,0,2.3,6.7,4.747,4.747,0,0,0,2.412,2.239,7.987,7.987,0,0,0,.056-1.4c-.274-1.738-.6-3.468-.88-5.206a5.364,5.364,0,0,1-.083-1.565,1.186,1.186,0,0,1,1.059-1.027,1.118,1.118,0,0,1,1.314.638,16.556,16.556,0,0,1,.642,2.547q1.059,5.574,2.076,11.156A18.99,18.99,0,0,0,1252,480.705c1.725,1.218,3.438,2.461,5.229,3.577a17.391,17.391,0,0,0,8.75,2.624,13.976,13.976,0,0,0,8.759-2.389,42.742,42.742,0,0,0,9.39-8.836,19.482,19.482,0,0,0,3.744-8.915,81.367,81.367,0,0,0,1.152-11.023c.039-1.408.135-2.815.2-4.223a5.4,5.4,0,0,1,.717-2.776,1.958,1.958,0,0,0,.2-1.986,1.655,1.655,0,0,1,.786-2.046,20.313,20.313,0,0,1,1.777-1.044c1.349-3.183,1.633-6.533,1.909-9.848.255-3.065.2-6.156.274-9.236a10.1,10.1,0,0,0-1.087-4.85c-1.113-2.194-2.2-4.407-3.468-6.513a12.942,12.942,0,0,0-2.342-2.47,3.49,3.49,0,0,0-1.92-.753,1.435,1.435,0,0,1-1.216-1.935,1.542,1.542,0,0,1,2.141-.944,11.412,11.412,0,0,1,4.818,3.585,17.946,17.946,0,0,1,1.774,2.62c1.074,2.018,2.11,4.06,3.054,6.143a10.685,10.685,0,0,1,1.006,4.88c-.169,3.866-.434,7.729-.606,11.595a49.27,49.27,0,0,1-1.52,8.536c.338.505.627.942.922,1.374a8.086,8.086,0,0,1,1.49,4.176c.1,1.933.107,3.872.124,5.807a6.849,6.849,0,0,1-.965,3.26c-.411.777-.89,1.518-1.355,2.267-1.475,2.376-1.652,2.513-4.557,3.48-.165.666-.4,1.413-.529,2.177a22.839,22.839,0,0,1-3.7,9.514,3.78,3.78,0,0,0-.745,1.646c-.223,2.181-.328,4.375-.454,6.239,3.181,3.769,6.154,7.245,9.058,10.777a6.833,6.833,0,0,0,2.211,1.794,68.426,68.426,0,0,0,7.738,3.363c5.276,1.963,10.535,3.979,15.8,5.963.657.248,1.331.454,2.006.657.768.233,1.137-.216,1.473-1.062-.332-.715-.715-1.584-1.135-2.436a5.787,5.787,0,0,1-.578-4.1,17.794,17.794,0,0,0,.448-4.7,7.072,7.072,0,0,1,2.288-5.167,5.663,5.663,0,0,1,1.263-.942,2.831,2.831,0,0,1,3.442.175c.334.278.7.527,1.032.779.7-.169.621-.8.775-1.239.625-1.76,1.678-2.87,3.7-2.7a2.96,2.96,0,0,0,.679-.139c.39-.848.818-1.794,1.261-2.731a2.873,2.873,0,0,1,2.956-1.777,7.407,7.407,0,0,1,5.37,2.3c3.57,3.641,5.469,8.14,7.207,12.763a17.5,17.5,0,0,1,.683,6.267,2.546,2.546,0,0,1-.422,1.216c-1.308,2.185-2.594,4.388-3.994,6.513-1.014,1.541-2.181,2.986-3.309,4.45a3.612,3.612,0,0,0-.809,2.412c.041,2.725-.186,5.456.492,8.146a8.123,8.123,0,0,1,.017,1.745c2.033-.315,3.872-.786,5.715-1.231a2.31,2.31,0,0,1,2.023.158,2.567,2.567,0,0,1,1.24,1.909,178.369,178.369,0,0,0,3.743,20.764,21.945,21.945,0,0,1,.458,3.125,1.27,1.27,0,0,1-1,1.366,1.348,1.348,0,0,1-1.53-.741,4.658,4.658,0,0,1-.443-1.231q-1.127-6.094-2.213-12.2c-.578-3.286-1.119-6.58-1.689-9.934a5.34,5.34,0,0,0-3.395.173c-4.709,1.1-9.422,2.181-14.121,3.324-2.892.7-5.76,1.5-8.673,2.267a4.739,4.739,0,0,0-.068,2.611c.565,4.185,1.171,8.367,1.753,12.552.182,1.306.336,2.616.5,3.926a4.258,4.258,0,0,1,.045.522,1.3,1.3,0,0,1-2.515.516,7.82,7.82,0,0,1-.5-1.764,30.61,30.61,0,0,1-.323-3.151,135.664,135.664,0,0,0-1.89-14.69c-.464-.268-.916-.527-1.552-.89.049-.659.1-1.408.152-2.053.315-.176.458-.321.608-.328,1.141-.051,2.286-.056,3.427-.12a14.8,14.8,0,0,0,1.61-.276c.394-2.661-.255-5.173-.2-7.6a2.2,2.2,0,0,0-.343-.531c-3.061-2.331-4.172-5.529-4.146-9.242.009-1.308,0-2.616,0-4l-26.21-10.184c-.218.5-.5,1.04-.693,1.605-1.2,3.5-2.382,6.995-3.573,10.495-.225.666-.411,1.348-.681,2-.747,1.8-1.725,2.083-3.238.92a22.168,22.168,0,0,1-2.425-2.038c-2.819-2.907-5.6-5.854-8.371-8.8a2.361,2.361,0,0,1-.646-1.113,1.686,1.686,0,0,1,.293-1.2,1.054,1.054,0,0,1,1.436-.22,7.565,7.565,0,0,1,1.365,1.214c1.6,1.755,3.159,3.555,4.773,5.3.954,1.034,1.969,2.014,2.992,2.982a7.962,7.962,0,0,0,1.151.8c.683.028.7-.415.8-.7,1.265-3.566,2.464-7.155,3.78-10.7a3.758,3.758,0,0,0-.572-3.958c-2.119-2.579-4.311-5.1-6.6-7.793a17.884,17.884,0,0,0-1.361,1.3,54.324,54.324,0,0,1-8.388,8.384c-.619.477-1.263.918-2.145,1.556-.379,2.59-.8,5.45-1.209,8.314-.569,4.009-1.119,8.018-1.7,12.027a6.952,6.952,0,0,1-.392,1.528,1.123,1.123,0,0,1-1.214.82,2.059,2.059,0,0,1-1.235-.811,7.869,7.869,0,0,1-.689-1.982q-2.7-9.661-5.377-19.326c-.07-.253-.163-.5-.2-.608-2.378-1.734-4.64-3.4-6.924-5.041s-4.075-3.894-6.77-5.285c-2.808,3.354-4.546,7.295-6.655,11ZM1202.9,489a2.025,2.025,0,0,0-2.361.206c-2.915,2.477-5.46,5.227-6.7,8.962a4.142,4.142,0,0,1-.584,1.156,1.4,1.4,0,0,1-1.884.336,1.33,1.33,0,0,1-.5-1.614c.054-.167.152-.319.21-.484a24.8,24.8,0,0,1,5.572-8.557c.655-.7,1.349-1.357,2.031-2.042-.43-1.092-.576-2.158-1.37-2.825a3.579,3.579,0,0,0-3.62,1.211c-3.38,3.41-5.281,7.616-6.834,12.044a14.034,14.034,0,0,0-.424,4.964,2.045,2.045,0,0,0,.22,1.015c1.241,2.018,2.44,4.071,3.808,6,1.421,2.006,3.011,3.893,4.544,5.822.449.565,1.064,1.259.674,1.873-1.03,1.627-.668,3.405-.848,5.126a21.4,21.4,0,0,1-1.081,6.038q6.643,1.727,13.251,3.433a2.551,2.551,0,0,0,.837-.118,15.048,15.048,0,0,0,.028-5.942c-.484-.032-.833-.053-1.179-.081a7.726,7.726,0,0,1-1.045-.1,1.381,1.381,0,0,1-1.151-1.261,1.433,1.433,0,0,1,1.248-1.453c.43-.071.875-.045,1.314-.077a5.529,5.529,0,0,0,4.694-3.318c1.3-2.47,1.267-5.1.98-7.721a3.38,3.38,0,0,0-1.892-2.96c-.935-.439-1.036-1.051-.612-1.984.509-1.117,1.1-2.2,1.689-3.277a4.228,4.228,0,0,0,.587-2.778,1.651,1.651,0,0,0-2.521-1.314,6.832,6.832,0,0,0-2.038,1.64c-1.282,1.659-2.682,3.275-3.129,5.435a3.29,3.29,0,0,1-.527,1.194,1.191,1.191,0,0,1-1.38.5,1.3,1.3,0,0,1-1-1.107,2.105,2.105,0,0,1,.122-1.023,25,25,0,0,1,1.507-3.354,19.45,19.45,0,0,1,4.6-5.646c-.195-.646-.366-1.141-.492-1.646-.146-.582-.092-1.259-.895-1.582-.484.244-1.051.484-1.565.8a6.07,6.07,0,0,0-1.226.989,17.037,17.037,0,0,0-4.283,6.569,5.561,5.561,0,0,1-.377.976,1.367,1.367,0,0,1-1.569.655,1.326,1.326,0,0,1-.88-1.453,9.934,9.934,0,0,1,.5-1.766,18.122,18.122,0,0,1,2.967-4.959,23.19,23.19,0,0,1,1.723-1.995c.612-.614,1.31-1.141,1.884-1.631C1203.505,490.686,1203.184,489.789,1202.9,489Zm140.464,38.29c-.24-1.057-.51-1.892-.61-2.746-.2-1.747-.308-3.506-.475-5.257a5.058,5.058,0,0,0-.325-2.044c-.753-1.239-.312-2.063.479-3.059a71.1,71.1,0,0,0,7.213-10.073,7.393,7.393,0,0,0,1.055-3.964,11.475,11.475,0,0,0-.822-4.118c-.858-2.021-1.851-3.986-2.742-5.993-.952-2.149-2.641-3.718-4.178-5.4a2.834,2.834,0,0,0-2.686-.732c-.813.131-.968.933-1.22,1.582-.154.4-.293.8-.456,1.252.734.745,1.421,1.417,2.081,2.115a24.46,24.46,0,0,1,5.514,8.6c.3.843.094,1.5-.531,1.8a1.527,1.527,0,0,1-2.01-.736,4.182,4.182,0,0,1-.293-.73c-1.151-3.684-3.69-6.338-6.5-8.793a3.308,3.308,0,0,0-.657-.437,1.321,1.321,0,0,0-1.944.681c-.282.723-.494,1.477-.739,2.218.465.428.867.764,1.233,1.139a22.849,22.849,0,0,1,5.009,7.063,12.279,12.279,0,0,1,.653,2,1.3,1.3,0,0,1-.841,1.464,1.242,1.242,0,0,1-1.564-.608,4.863,4.863,0,0,1-.4-.972,16.132,16.132,0,0,0-4.112-6.372,5.126,5.126,0,0,0-3.238-1.783c-.321,1.068-.616,2.057-.961,3.206a16.233,16.233,0,0,1,4.641,5.651,18.945,18.945,0,0,1,1.47,3.639,1.24,1.24,0,0,1-.811,1.481,1.4,1.4,0,0,1-1.732-.809,4.387,4.387,0,0,1-.233-.756,13.788,13.788,0,0,0-2.828-5.021,10.675,10.675,0,0,0-1.723-1.618,1.961,1.961,0,0,0-2.219-.33,1.806,1.806,0,0,0-.886,2.038,7.356,7.356,0,0,0,.659,1.98c.482,1.034,1.085,2.012,1.561,3.048.522,1.139.484,1.507-.64,2.158a3.262,3.262,0,0,0-1.659,2.549c-.357,2.815-.385,5.627,1.057,8.226a5.136,5.136,0,0,0,4.157,2.855,12.219,12.219,0,0,1,1.819.229,1.215,1.215,0,0,1,.916,1.158,1.3,1.3,0,0,1-.972,1.391c-.758.165-1.539.229-2.38.347a6.27,6.27,0,0,0-.229,1.327c.075,1.479.214,2.954.34,4.593C1334.376,529.835,1338.766,528.319,1343.366,527.286Zm-74.652-13.665c.276-1.128.494-1.785.6-2.459.544-3.649,1.107-7.3,1.56-10.959.184-1.49.4-2.8,2.177-3.127.152-.028.278-.208.413-.319,2.378-1.943,4.919-3.7,6.777-6.222.884-1.2,2.207-2.207,2.688-3.536s.18-2.945.186-4.437a4.333,4.333,0,0,0-.308-1.034c-.711.606-1.242,1.055-1.768,1.507-1.068.914-2.11,1.862-3.206,2.74a18.752,18.752,0,0,1-21.706,1.321c-1.344-.833-2.611-1.785-3.93-2.656a10.351,10.351,0,0,0-1.246-.593c-.045.826-.092,1.432-.107,2.04-.017.691,0,1.385,0,1.974.955.811,1.764,1.481,2.558,2.172a63.173,63.173,0,0,0,8.185,6.2,15.064,15.064,0,0,1,2.682,2.419,2.862,2.862,0,0,1,.454,1.2c1.062,3.808,2.106,7.618,3.172,11.424C1268.065,511.917,1268.326,512.536,1268.714,513.621Zm24.63-66.974c-1.239.3-1.391,1.186-1.4,2.224q-.035,3.817-.156,7.637c-.045,1.406-.184,2.808-.242,4.212a5.809,5.809,0,0,0,.332,1.259c1.8-1.845,3.1-3.6,3.459-5.8a18.531,18.531,0,0,0-.1-6.563A3.733,3.733,0,0,0,1293.344,446.647Zm-83.64,44.921c.306,1.479.608,2.952.935,4.536.385-.023.79.064,1.015-.1a1.234,1.234,0,0,0,.389-.878,3.949,3.949,0,0,0-.822-2.667C1210.864,492.018,1210.584,491.41,1209.7,491.568Zm117.2,3.921c.126-.683.238-1.44.411-2.181.167-.723.4-1.43.644-2.314a2.779,2.779,0,0,0-2.1,1.976,4.888,4.888,0,0,0-.3,2.25C1325.643,495.858,1326.285,495.791,1326.906,495.489Z" transform="translate(-1167.403 -397.284)" fill-rule="evenodd"/>
          <path id="パス_2809" data-name="パス 2809" d="M1544.32,691.24c2.1.064,4.21.193,6.314.173,2.28-.021,4.557-.193,6.837-.274.79-.028,1.582,0,2.372.039,1.5.068,2.014.55,1.76,1.918a39.155,39.155,0,0,1-1.359,5.619,26.9,26.9,0,0,1-2.123,4.225,8.681,8.681,0,0,1-3.4,3.23,7.327,7.327,0,0,1-9.454-1.807,37.265,37.265,0,0,1-4.66-8.217,4.35,4.35,0,0,1-.342-3.074,2.2,2.2,0,0,1,2.22-1.873c.61-.056,1.228-.009,1.843-.009C1544.322,691.208,1544.32,691.226,1544.32,691.24Zm-1.162,2.887a3.715,3.715,0,0,0,.015,1.117,23.839,23.839,0,0,0,4.681,7.834,3.835,3.835,0,0,0,2.515,1.259,4.976,4.976,0,0,0,4.3-1.547,13.606,13.606,0,0,0,3.827-8.549c-4.5-.608-8.874.244-13.213-.238A12.574,12.574,0,0,0,1543.157,694.128Z" transform="translate(-1451.688 -620.614)" fill-rule="evenodd"/>
          <path id="パス_2810" data-name="パス 2810" d="M1476.556,361.744a15.591,15.591,0,0,1,7.265,1.207,22.237,22.237,0,0,1,5.595,3.418,8.352,8.352,0,0,1,2.335,3.149,2.662,2.662,0,0,1,.319,1.246,1.734,1.734,0,0,1-.567,1.081,1.094,1.094,0,0,1-1.449-.118,2.4,2.4,0,0,1-.612-.839c-1.139-2.611-3.416-3.968-5.813-5.086a12.472,12.472,0,0,0-6.623-1.4,7.218,7.218,0,0,1-1.58,0,10.691,10.691,0,0,0-6.976,1.894c-4.039,2.487-8.11,4.944-11.381,8.465-2.292,2.466-5.308,3.684-8.328,4.9a3.523,3.523,0,0,1-1.28.261,1.134,1.134,0,0,1-1.184-.865,1.581,1.581,0,0,1,.231-1.207,3.012,3.012,0,0,1,1.308-.779,17.554,17.554,0,0,0,7.376-4.424c3.444-3.594,7.678-6.126,11.869-8.7C1470.184,362.035,1471.631,361.748,1476.556,361.744Z" transform="translate(-1377.918 -361.688)" fill-rule="evenodd"/>
          <path id="パス_2811" data-name="パス 2811" d="M1471.37,843.446c1.787-.062,1.847-.051,2.391,1.336,1.312,3.354,2.6,6.717,3.893,10.077.345.893.694,1.783,1.13,2.9a13.645,13.645,0,0,0,1.265-1.115c1.776-2.066,3.521-4.161,5.306-6.222a9.148,9.148,0,0,1,1.533-1.415,1.264,1.264,0,0,1,1.64,1.841,7.125,7.125,0,0,1-.535.58q-3.256,3.808-6.5,7.62a15.382,15.382,0,0,1-1.19,1.4,1.916,1.916,0,0,1-2.984-.285,9.768,9.768,0,0,1-1.1-2.089c-.557-1.385-1.008-2.812-1.56-4.2-.942-2.363-1.929-4.711-2.9-7.063-.2-.488-.394-.978-.616-1.456a1.938,1.938,0,0,1,.291-1.984S1471.37,843.446,1471.37,843.446Z" transform="translate(-1397.358 -740.277)" fill-rule="evenodd"/>
          <path id="パス_2812" data-name="パス 2812" d="M1667.095,479.969c.205,2.551.411,5.006.6,7.464a4.556,4.556,0,0,1,.011,1.56,1.661,1.661,0,0,1-.863.882,1.045,1.045,0,0,1-1.355-.509,3.7,3.7,0,0,1-.372-1.5c-.225-3.069-.435-6.141-.608-9.215a6.153,6.153,0,0,0-1.528-3.579c-1.111-1.366-2.3-2.667-3.448-4a11.17,11.17,0,0,1-1.333-1.631,2.664,2.664,0,0,1-.289-1.485,1.182,1.182,0,0,1,1.843-.723,3.691,3.691,0,0,1,.554.559c1.453,1.768,2.855,3.579,4.358,5.3C1666.425,475.108,1667.515,477.313,1667.095,479.969Z" transform="translate(-1544.268 -444.469)" fill-rule="evenodd"/>
          <path id="パス_2813" data-name="パス 2813" d="M1479.483,476.892a5.1,5.1,0,0,1-.456,1.089c-2.838,3.664-5.375,7.566-8.613,10.914a6.98,6.98,0,0,1-1.167,1.042,1.056,1.056,0,0,1-1.426-.19,1.147,1.147,0,0,1-.165-1.447,4.634,4.634,0,0,1,.841-.991,43.492,43.492,0,0,0,6.952-8.855,10.979,10.979,0,0,1,1.563-2.091,1.772,1.772,0,0,1,1.4-.407C1478.811,476.034,1479.123,476.554,1479.483,476.892Z" transform="translate(-1394.601 -451.48)" fill-rule="evenodd"/>
          <path id="パス_2814" data-name="パス 2814" d="M1580.856,462.932c-.3-.347-.762-.676-.875-1.1-.084-.308.233-.8.5-1.1a2.219,2.219,0,0,1,.944-.432,15.345,15.345,0,0,0,6.115-3.979c.993-.991,1.956-2.014,2.95-3.005a5.217,5.217,0,0,1,1.008-.822,1.139,1.139,0,0,1,1.44.227,1.123,1.123,0,0,1,.24,1.432,2.334,2.334,0,0,1-.454.64,45.4,45.4,0,0,1-7.845,6.582,23.3,23.3,0,0,1-2.851,1.321A6.19,6.19,0,0,1,1580.856,462.932Z" transform="translate(-1483.016 -432.927)" fill-rule="evenodd"/>
          <path id="パス_2815" data-name="パス 2815" d="M1541.6,453.856c-.828.019-1.507-.856-1.282-1.47a2.969,2.969,0,0,1,.5-.914,78.7,78.7,0,0,0,6.486-9.536,10.989,10.989,0,0,1,.89-1.293,1.328,1.328,0,0,1,1.682-.178,1.281,1.281,0,0,1,.437,1.616,5.7,5.7,0,0,1-.52.908q-3.288,4.745-6.588,9.48a5.256,5.256,0,0,1-.824,1.012A2.588,2.588,0,0,1,1541.6,453.856Z" transform="translate(-1451.822 -423.432)" fill-rule="evenodd"/>
          <path id="パス_2816" data-name="パス 2816" d="M1511.739,557.031a4.847,4.847,0,0,1,3.9,1.235,1.411,1.411,0,0,1,.278,1.886,1.188,1.188,0,0,1-1.629.377c-1.753-1.171-3.562-.529-5.33-.24-.61.1-1.145.717-1.693,1.126-.717.533-1.385.6-1.89.15a1.54,1.54,0,0,1-.06-2.132,5.126,5.126,0,0,1,3.065-1.877C1509.494,557.348,1510.62,557.2,1511.739,557.031Z" transform="translate(-1424.028 -515.188)" fill-rule="evenodd"/>
          <path id="パス_2817" data-name="パス 2817" d="M1284.084,636.752c-.107-1.389-.246-2.778-.31-4.17a1.3,1.3,0,0,1,1.691-1.413,1.913,1.913,0,0,1,.944.811,2.825,2.825,0,0,1,.212,1.267q.022,3.667-.011,7.331a3.642,3.642,0,0,1-.2,1.276,1.217,1.217,0,0,1-2.331-.135,5.8,5.8,0,0,1-.111-1.3c-.013-1.222,0-2.442,0-3.664C1284.007,636.757,1284.045,636.757,1284.084,636.752Z" transform="translate(-1250.22 -573.427)" fill-rule="evenodd"/>
          <path id="パス_2818" data-name="パス 2818" d="M1135.539,740.607c-.409-.143-.91-.3-1.391-.495-1.772-.734-3.549-1.46-5.3-2.245a5.957,5.957,0,0,1-1.494-1.023,1.309,1.309,0,0,1-.056-1.682,1.333,1.333,0,0,1,1.411-.456,2.059,2.059,0,0,1,.711.315,21.973,21.973,0,0,0,6.468,2.768,6.76,6.76,0,0,1,.753.216,1.418,1.418,0,0,1,.811,1.5,1.438,1.438,0,0,1-1.293,1.107C1135.984,740.613,1135.811,740.607,1135.539,740.607Z" transform="translate(-1127.02 -654.828)" fill-rule="evenodd"/>
          <path id="パス_2819" data-name="パス 2819" d="M1616.987,552.4c.623.156,1.809.411,2.96.775a2.215,2.215,0,0,1,1,.8,1.109,1.109,0,0,1-.034,1.453,1.762,1.762,0,0,1-1.111.526,3.458,3.458,0,0,1-1.226-.4,6,6,0,0,0-4.833.175c-.317.146-.606.353-.931.473a1.312,1.312,0,0,1-1.584-.55,1.356,1.356,0,0,1,.3-1.667,6.247,6.247,0,0,1,3.3-1.473A18.185,18.185,0,0,1,1616.987,552.4Z" transform="translate(-1507.45 -511.579)" fill-rule="evenodd"/>
          <path id="パス_2820" data-name="パス 2820" d="M1199.584,664.869a3.876,3.876,0,0,1-.773.884,1.1,1.1,0,0,1-1.443-.2,4.577,4.577,0,0,1-.685-1.109q-1.451-2.95-2.877-5.92a6.108,6.108,0,0,1-.5-1.205,1.2,1.2,0,0,1,.574-1.355,1.353,1.353,0,0,1,1.494.047,1.973,1.973,0,0,1,.679.783c1.124,2.38,2.222,4.771,3.315,7.166A5.374,5.374,0,0,1,1199.584,664.869Z" transform="translate(-1179.091 -592.818)" fill-rule="evenodd"/>
          <path id="パス_2821" data-name="パス 2821" d="M2032.786,736.1a3.384,3.384,0,0,1-.753,1.04,13.075,13.075,0,0,1-2.307,1.209c-1.522.651-3.063,1.259-4.608,1.847a3.91,3.91,0,0,1-1.265.229,1.285,1.285,0,0,1-1.214-1.156,1.213,1.213,0,0,1,.638-1.314,9.181,9.181,0,0,1,1.475-.514,19.954,19.954,0,0,0,5.5-2.359,3.367,3.367,0,0,1,1.19-.477A1.3,1.3,0,0,1,2032.786,736.1Z" transform="translate(-1830.927 -654.769)" fill-rule="evenodd"/>
          <path id="パス_2822" data-name="パス 2822" d="M1977.949,667.035a1.255,1.255,0,0,1-1.312-1.3,3.742,3.742,0,0,1,.3-.989q1.4-3.092,2.84-6.169a4.741,4.741,0,0,1,.7-1.089,1.312,1.312,0,0,1,1.676-.195,1.247,1.247,0,0,1,.548,1.58c-.24.557-.578,1.072-.843,1.62-.873,1.8-1.747,3.607-2.594,5.42A1.66,1.66,0,0,1,1977.949,667.035Z" transform="translate(-1794.774 -593.853)" fill-rule="evenodd"/>
          <path id="パス_2823" data-name="パス 2823" d="M1906.044,638.556c0,1.141.017,2.284-.009,3.427a7.144,7.144,0,0,1-.173,1.556,1.056,1.056,0,0,1-1.205.786.965.965,0,0,1-.989-.717,6.917,6.917,0,0,1-.2-1.552c-.032-2.284-.038-4.568-.047-6.849a5.359,5.359,0,0,1,.056-.786,1.449,1.449,0,0,1,1.62-1.346,1.361,1.361,0,0,1,1.12,1.541c-.03.7-.158,1.4-.2,2.1-.034.612-.009,1.229-.009,1.843Z" transform="translate(-1737.237 -574.974)" fill-rule="evenodd"/>
          <path id="パス_2824" data-name="パス 2824" d="M1535.237,599.991c-.051.195-.1.454-.188.7a1.615,1.615,0,0,1-1.719,1.278,1.764,1.764,0,0,1-1.533-1.547,3.166,3.166,0,0,1,0-1.034,1.926,1.926,0,0,1,2.027-1.631A1.893,1.893,0,0,1,1535.237,599.991Z" transform="translate(-1445.125 -547.211)" fill-rule="evenodd"/>
          <path id="パス_2825" data-name="パス 2825" d="M1622.524,596.34a3.173,3.173,0,0,1,.794.31,1.874,1.874,0,0,1,.644,2.089,2.149,2.149,0,0,1-1.665,1.785,1.6,1.6,0,0,1-.974-.212,2.16,2.16,0,0,1-.935-2.477A2.483,2.483,0,0,1,1622.524,596.34Z" transform="translate(-1514.71 -546.114)" fill-rule="evenodd"/>
          <path id="パス_2826" data-name="パス 2826" d="M1578.609,663.78a10.208,10.208,0,0,1,1.235.323,1.3,1.3,0,0,1-.026,2.412,3.642,3.642,0,0,1-2.553,0,1.27,1.27,0,0,1-.933-1.134,1.306,1.306,0,0,1,.97-1.372A12.758,12.758,0,0,1,1578.609,663.78Z" transform="translate(-1480.155 -599.119)" fill-rule="evenodd"/>
          <path id="パス_2827" data-name="パス 2827" d="M1593.754,981.116a1.361,1.361,0,0,1,1.393,1.231,1.324,1.324,0,0,1-1.182,1.421,1.416,1.416,0,0,1-1.393-1.522A1.237,1.237,0,0,1,1593.754,981.116Z" transform="translate(-1492.922 -848.531)" fill-rule="evenodd"/>
        </g>
      </g>
    </g>
    <rect id="長方形_4866" data-name="長方形 4866" width="240" height="202" transform="translate(435 3410)" fill="none"/>
  </g>
</svg>
