<svg xmlns="http://www.w3.org/2000/svg" width="437" height="93.92" viewBox="0 0 437 93.92">
  <path id="top-message-copy" d="M22.76,2.28c2.6,0,3.92-.68,4.28-8.8L24.8-7.76c-.12,7.52-.96,7.52-2.96,7.52H15.76c-1.08,0-1.4-.36-1.4-1.6v-19l3.44-.92V-6.84H20V-22.36l3.8-1v9.76c0,1.64-.04,2-3.32,2l.84,2.4c4.04,0,4.6-.84,4.6-4.76V-26.44L20-24.84v-9.28H17.8v9.84l-3.44.92v-8.16h-2.2v8.72l-2.36.64.32,2.44,2.04-.52V-1.08c0,2.6,1.16,3.36,2.72,3.36ZM10.2-8.24c-1.12.68-2.32,1.32-3.44,1.88v-13.6H9.4v-2.48H6.76V-32.92H4.48v10.48H1.56v2.48H4.48V-5.32A36.756,36.756,0,0,1,1-4l.52,2.6A60.42,60.42,0,0,0,10.2-5.52ZM46.92,3.28c8.76-.24,8.76-.8,8.76-20.08H43.28c.16-2.24.2-4.72.24-7.52H58.6v-2.56H47.28v-7.28H44.76v7.28H33.84v2.56h7.24c-.04,14.92-2.04,20.48-8.2,25.8l1.8,2.2c5.12-4.8,7.48-9.28,8.36-17.88h10.2C53.24.44,53.2.64,47.24.64H45.88ZM79.16,1.04V-14.44H71.88c1.36-1.48,2.68-3.04,3.92-4.68h4.8v-2.4H77.12a46.107,46.107,0,0,0,4-8.56l-1.92-.96a38.335,38.335,0,0,1-4.36,9.52H73.36v-5.44H77.4v-2.4h-4v-4.76H71.2v4.76H66.76v2.4H71.2v5.44H65.64v2.4h7.68a32.516,32.516,0,0,1-8.48,7.72l1.08,2.24c.76-.56,1.52-1.2,2.28-1.84V3.68h2.16V1.04Zm4.72,2.64v-7.6l.92,2.08c4.48-.04,6.08-2.32,6.08-6.36,0-2.88-1.2-6.64-3.6-10.92L90.32-30.4v-2.24h-8.6V3.68Zm0-8.08V-30.16H88L85.12-19c2.56,4.88,3.64,8.12,3.64,10.6,0,2.68-.72,3.88-3.76,4ZM77.04-1.28H70.32V-5.72h6.72Zm0-6.72H70.32v-4.08h6.72ZM111.2,3.68v-21h6.96V-5.36c0,1.88-.2,2.36-3.24,2.4H113.8l.84,2.56c4.56,0,5.8-.8,5.8-4.92V-19.88H111.2v-5.36h-2.44v5.36h-9.2V-.32h2.32v-17h6.88v21Zm11.64-30.12v-2.48H111.2v-5.2h-2.44v5.2H97.16v2.48ZM140.64-.88a14.943,14.943,0,0,1-4.4-.76l.52,3.04a22.166,22.166,0,0,0,4.2.44c5.36,0,6.44-9.44,6.44-17.4,0-7.8-2.04-9-5.48-9h-.16c-.92,0-1.72.04-2.6.12.48-2.92.76-5.84.92-8.36l-2.6-.24a68.435,68.435,0,0,1-.84,8.72c-2.52.24-4.6.44-6.24.52l.28,2.6c1.56-.2,3.36-.4,5.56-.64C134.88-14.4,132.64-5.4,129.92.6l2.6,1.08c2.28-5.08,4.68-15.08,6.24-23.76,1.28-.08,2-.12,2.88-.12,2.64,0,3.28.8,3.28,6.56-.04,3.96-.52,14.76-4.24,14.76Zm14.8-11.64a43.7,43.7,0,0,0-6.56-15.96l-2.12,1.04a42.306,42.306,0,0,1,6.36,16.36Zm10.4,13.88a32.448,32.448,0,0,0,6.04.52c5.52,0,13.44-2.2,13.44-10.96,0-5-3.16-8.6-8.32-8.6-5.28,0-9.28,3.76-10.6,5.12.28-2.88,1.12-8.56,1.56-12.08l-2.72-.32c-.44,4.24-1.2,10.76-1.48,15.32l2.32.6c2.52-2.92,6.04-6.28,10.6-6.28a5.648,5.648,0,0,1,5.96,6.04c0,5.8-4.88,8.52-10.12,8.6a32.629,32.629,0,0,1-7.32-.84Zm13.8-31.28a45.582,45.582,0,0,0-12.08-1.64l-.8,2.52c3.28.08,8.6.56,12.08,1.84ZM212.44-1a9.947,9.947,0,0,1-1.88.16c-9.4,0-10.88-6.16-10.88-9.96,0-5.92,3.2-12.04,7.68-14.88,1.32-.84,2.64-1.04,5.04-1.04l2.04-.04-.2-2.68c-6.32.48-18.44.68-23.56.88l.2,2.84c4.04-.24,10.12-.56,14.12-.92-7.48,5.64-7.92,14.44-7.92,16.04,0,7.28,4.68,12.44,12.92,12.56.6,0,1.24,0,1.8-.04Zm.88-14.36a55.731,55.731,0,0,0-3.56-7.48l-1.76.88a50.975,50.975,0,0,1,3.48,7.6Zm3.72-1.76a45.987,45.987,0,0,0-3.72-7.28l-1.72.84a56.168,56.168,0,0,1,3.64,7.48Zm22.16,5.4-.04-2.4h-8.12c.08-2.24.24-4.84.4-7.52h7.4v-2.4H231.6c.16-2.6.36-5.28.6-8l-2.68-.16c-.16,2.68-.28,5.36-.4,8.16h-4.8v2.4H229l-.4,7.52h-4.68v2.4h4.56c-.04,1.6-.16,3.32-.2,4.96v.44c0,4.6,1.84,9,8.68,9C241.48,2.68,247,.96,247-7.68a18.943,18.943,0,0,0-3.8-10.72l-2.48,1.08A16.935,16.935,0,0,1,244.4-7.8c0,3.08-.8,7.92-7.56,7.92-4,0-6.08-1.92-6.08-6.72,0-1.16.12-4.6.16-5.12ZM26.04,56.72V54.2H7.28v-19h4.88V48.76H22.48V35.2h4.36V32.68H22.48V21.88H20.04v10.8H14.6V21.88H12.16v10.8H7.28V23.6H4.76v9.08H1.12V35.2H4.76V59.68H7.28V56.72Zm-6-10.44H14.6V35.2h5.44Zm39,.6a19.715,19.715,0,0,1-8.36-6.76h5.64V23.32H35.64v16.8H41.6a16.694,16.694,0,0,1-8.68,7.52l1.32,2.32a22.078,22.078,0,0,0,6.32-4.52c-.04,5.96-.96,9.64-5.56,12.52l1.96,1.8c4.72-3.56,5.84-7.68,5.84-14.84H41.04a18.933,18.933,0,0,0,3.04-4.8h4.08a25.158,25.158,0,0,0,9.64,9.16ZM54,37.76H47.08V32.8H54ZM51.84,59.68V44.92H49.52V59.68ZM54,30.56H47.08V25.68H54Zm-9.24,7.2h-6.8V32.8h6.8Zm0-7.2h-6.8V25.68h6.8ZM87.24,55a9.947,9.947,0,0,1-1.88.16c-9.4,0-10.88-6.16-10.88-9.96,0-5.92,3.2-12.04,7.68-14.88,1.32-.84,2.64-1.04,5.04-1.04l2.04-.04-.2-2.68c-6.32.48-18.44.68-23.56.88l.2,2.84c4.04-.24,10.12-.56,14.12-.92C72.32,35,71.88,43.8,71.88,45.4c0,7.28,4.68,12.44,12.92,12.56.6,0,1.24,0,1.8-.04Zm.88-14.36a55.73,55.73,0,0,0-3.56-7.48l-1.76.88a50.975,50.975,0,0,1,3.48,7.6Zm3.72-1.76a45.987,45.987,0,0,0-3.72-7.28l-1.72.84a56.17,56.17,0,0,1,3.64,7.48Zm29.96,20.8V43h-6.52V35.84h7.56V33.4h-7.56V26.08a29.091,29.091,0,0,0,6.48-1.52l-1.04-2.24c-4.04,1.56-9.96,1.92-14.88,1.92l.68,2.44c1.88-.04,4.12-.12,6.36-.32V33.4H105.2v2.44h7.68V43h-5.96V59.68h2.28V57.4h10.28v2.28ZM119.48,55H109.2V45.44h10.28Zm-20.4,3.16a56.3,56.3,0,0,0,6.04-13.76l-1.92-1.56c-1.28,4.36-3.76,10.52-6.16,13.92Zm6.28-29.88a51.178,51.178,0,0,0-5.76-6L98,24.12a41.94,41.94,0,0,1,5.64,5.96Zm-1.04,9.44a60.658,60.658,0,0,0-5.76-5.8l-1.52,1.92a45.624,45.624,0,0,1,5.68,5.76ZM139.6,52.6a34.644,34.644,0,0,1-3.28,1.12V44.56h2.88V42.08h-2.88V36.24h2.56V23.36h-8.84V36.24h4.16V54.36l-1.76.48V39.6h-1.96V55.28c-.52.12-1.04.24-1.52.32l.44,2.52c3.16-.76,7.44-2.04,10.2-3.04Zm15.32,5.2V55.72h-5.48V52.24h4.32V50.4h-4.32V47.2h4.32V45.36h-4.32V42.12h5.12V40.16h-4.72c.4-.84.88-1.96,1.24-2.88l-2-.52a19.332,19.332,0,0,1-1.32,3.4h-3.88c.36-.96.68-1.96.96-2.92l-2-.56a24.592,24.592,0,0,1-4.56,9.76l1.08,2.24a26.6,26.6,0,0,0,1.96-3.16V59.68h2V57.8ZM146.6,36.28V23.36h-6.68V25.4h4.68v3.36h-4.2v1.92h4.2v3.6h-4.68v2Zm7.44,0V23.36h-6.6V25.4H152v3.36h-4.16v1.92H152v3.6h-4.52v2ZM136.8,33.92h-4.56V25.8h4.56Zm10.72,21.8h-4.2V52.24h4.2Zm0-10.36h-4.2V42.12h4.2Zm0,5.04h-4.2V47.2h4.2ZM183.24,55a9.947,9.947,0,0,1-1.88.16c-9.4,0-10.88-6.16-10.88-9.96,0-5.92,3.2-12.04,7.68-14.88,1.32-.84,2.64-1.04,5.04-1.04l2.04-.04-.2-2.68c-6.32.48-18.44.68-23.56.88l.2,2.84c4.04-.24,10.12-.56,14.12-.92-7.48,5.64-7.92,14.44-7.92,16.04,0,7.28,4.68,12.44,12.92,12.56.6,0,1.24,0,1.8-.04Zm.88-14.36a55.729,55.729,0,0,0-3.56-7.48l-1.76.88a50.975,50.975,0,0,1,3.48,7.6Zm3.72-1.76a45.986,45.986,0,0,0-3.72-7.28l-1.72.84a56.17,56.17,0,0,1,3.64,7.48ZM214.28,54.2a31.429,31.429,0,0,1-8.2,1.12c-6.12,0-7.48-3.04-7.48-5,0-3.8,5.24-4.44,7.76-4.44,1.4,0,5.92.16,8.2,2.36l1.84-2.28a50.471,50.471,0,0,1-5.24-8.12c1.88-.36,3.96-.72,5.92-1.24l-.48-2.48c-2.08.56-4.36,1.04-6.52,1.4-.84-1.56-1.56-3.32-2.28-4.92,2.36-.32,4.84-.64,7.28-1.2l-.36-2.52a55.337,55.337,0,0,1-7.84,1.4c-.76-1.76-1.44-3.6-2-5.28l-2.4.68c.64,1.6,1.28,3.44,1.92,4.92a52.5,52.5,0,0,1-5.6.28c-1.16,0-2.32-.04-3.44-.08l.44,2.52c.72.04,1.44.04,2.16.04,2.44,0,4.96-.16,7.4-.4.76,1.64,1.52,3.4,2.32,4.96a72.224,72.224,0,0,1-9.88.72c-.96,0-1.84-.04-2.72-.08l.32,2.6h1.36a90.463,90.463,0,0,0,11.96-.92c1.12,2.04,2.4,4.28,3.68,6.2a22.955,22.955,0,0,0-5.72-.8h-.32c-5.44,0-10.44,1.8-10.44,6.92,0,5.6,5.88,7.44,10.92,7.44a31.644,31.644,0,0,0,7.2-.88Zm23.32.68c0-4.96-1.96-8.08-5.84-8.08a4.49,4.49,0,0,0-4.84,4.68c0,4.2,4.36,6.64,9.36,6.64,5.64,0,11.32-3.32,11.32-11.64,0-7.36-5.88-8.84-8.64-8.84h-.28a12.172,12.172,0,0,0-7.28,2.2h-.08c-.08,0-.12,0-.12-.04s.04-.08.12-.16c1.24-1.04,2.8-2.16,4.6-3.88,0,0,6.68-6.36,8.24-7.84l-.04-2.36-15.88.08V28.2c.92-.04,7.52-.12,8.44-.16,1.48-.04,4.12-.12,4.24-.16-.32.44-11.16,10.88-12.92,12.4a45.954,45.954,0,0,1-3.8,2.96l2.04,2.16c5.36-5.52,11-5.56,12.04-5.56,4.12,0,6.6,2.56,6.6,6.8,0,5.8-4,8.84-7.28,9.08Zm-2.32.92c-3.08-.04-6.04-1.64-6.04-4.36a2.344,2.344,0,0,1,2.44-2.52C235.2,48.96,235.28,53.96,235.28,55.8Zm43.16,3.88V44.2H264.32A39.162,39.162,0,0,0,267,39.04h13.68V36.6H267.96a44.593,44.593,0,0,0,1.28-4.44l-2.28-.6c-.48,1.84-1,3.48-1.56,5.04h-9.08v2.44h8.04a29.687,29.687,0,0,1-9,11.44L257,52.52a31.869,31.869,0,0,0,4.52-4.48V59.68h2.4V57.52h12.16v2.16Zm2.44-30.84V26.36h-6.72V21.88H271.8v4.48h-6.88V21.88H262.6v4.48h-6.76v2.48h6.76V33.4h2.32V28.84h6.88V33.4h2.36V28.84Zm-4.8,26.28H263.92V46.64h12.16Zm33.88,4.6V42.08h-11.6a33.65,33.65,0,0,0,6.32-5.04H313v-2.4h-6.32a39.378,39.378,0,0,0,5.92-9.08l-2.04-1.16a35.293,35.293,0,0,1-6.92,10.24h-2.8V29.28h6.2V26.84h-6.2V21.8h-2.36v5.04h-7.52v2.44h7.52v5.36H288.04v2.4h13.48a46.344,46.344,0,0,1-14.2,8.04l1.16,2.32a42.791,42.791,0,0,0,4.32-1.96V59.72h2.32V57.68h12.56v2.04Zm-2.28-4.36H295.12v-4.4h12.56Zm0-6.64H295.12V44.44h12.56Zm34.24,6.24a32.157,32.157,0,0,1-6.88.84c-5.48,0-6.96-2.24-6.96-4.28,0-3.68,4.32-6.76,6.04-7.88v.68c0,2.04-.12,4.28-.28,6.16l2.6-.12c.08-2.2.16-4.36.16-6.08,0-.68,0-1.28-.04-1.8a59.022,59.022,0,0,1,8.52-3.4l-1.04-2.68c-3.56,1.44-5.12,2.16-7.56,3.36-.32-4.2-2.12-5.36-4.2-5.36-2.2,0-4,1.56-5.64,3.36a60.061,60.061,0,0,0,4-7.88l10.2-.04V27.48H331.4c.48-1.24.92-2.52,1.28-3.76l-2.72-.48c-.28,1.2-.68,2.64-1.2,4.28H320.8v2.36h7.28a56.974,56.974,0,0,1-8.04,14.44l2.36,1.6c2.16-3.56,5.72-9.4,9.4-9.4,1.72,0,2.24,1.56,2.36,4.4-4.48,2.68-8.56,6.56-8.56,10.6,0,2.84,1.32,6.92,9.76,6.92a33.52,33.52,0,0,0,6.44-.6Zm25.52,4.6c5.64,0,6.52-1.4,6.52-5.56V38.8h-19.2V59.68h2.4v-7H371.6v1.4c0,2.4-.36,3.04-4.16,3.04h-1Zm9.6-22.8a98.214,98.214,0,0,0-6.28-8.56l-1.88,1.16c.88,1,1.8,2.2,2.72,3.48-3.6.48-8.4.8-13,.92a27.225,27.225,0,0,0,3.24-5.96h14.84V25.4H365.52V21.88h-2.48V25.4H351.96v2.4h7.28a25.006,25.006,0,0,1-3.44,6c-1.2,0-2.4,0-3.52-.04l.32,2.44h.96a142.652,142.652,0,0,0,19.52-1.24c.8,1.16,1.52,2.32,2.12,3.36ZM371.6,50.48H357.16V46.92H371.6Zm0-5.8H357.16V41.12H371.6ZM405.64,55a9.947,9.947,0,0,1-1.88.16c-9.4,0-10.88-6.16-10.88-9.96,0-5.92,3.2-12.04,7.68-14.88,1.32-.84,2.64-1.04,5.04-1.04l2.04-.04-.2-2.68c-6.32.48-18.44.68-23.56.88l.2,2.84c4.04-.24,10.12-.56,14.12-.92-7.48,5.64-7.92,14.44-7.92,16.04,0,7.28,4.68,12.44,12.92,12.56.6,0,1.24,0,1.8-.04ZM428,54.88c0-4.96-1.96-8.08-5.84-8.08a4.49,4.49,0,0,0-4.84,4.68c0,4.2,4.36,6.64,9.36,6.64,5.64,0,11.32-3.32,11.32-11.64,0-7.36-5.88-8.84-8.64-8.84h-.28a12.172,12.172,0,0,0-7.28,2.2h-.08c-.08,0-.12,0-.12-.04s.04-.08.12-.16c1.24-1.04,2.8-2.16,4.6-3.88,0,0,6.68-6.36,8.24-7.84l-.04-2.36-15.88.08V28.2c.92-.04,7.52-.12,8.44-.16,1.48-.04,4.12-.12,4.24-.16-.32.44-11.16,10.88-12.92,12.4a45.954,45.954,0,0,1-3.8,2.96l2.04,2.16c5.36-5.52,11-5.56,12.04-5.56,4.12,0,6.6,2.56,6.6,6.8,0,5.8-4,8.84-7.28,9.08Zm-2.32.92c-3.08-.04-6.04-1.64-6.04-4.36a2.344,2.344,0,0,1,2.44-2.52C425.6,48.96,425.68,53.96,425.68,55.8Z" transform="translate(-1 34.16)" fill="#222"/>
</svg>
