<svg xmlns="http://www.w3.org/2000/svg" width="240" height="202" viewBox="0 0 240 202">
  <g id="top-goodpoint-4" transform="translate(-1375 -3471)">
    <g id="グループ_1930" data-name="グループ 1930" transform="translate(1400.766 3526.082)">
      <path id="パス_2739" data-name="パス 2739" d="M1162.121,686.745c-1.392-3.485-4.106-9.1-7.606-12.9a2.263,2.263,0,0,0-.629-2.7,33.643,33.643,0,0,0-13.088-7.546c-3.513-5.367-14.165-3.794-19.239-1.074-.057.03-.1.07-.151.1-4.774.638-10.45,2.145-11.609,6.157-.051.036-.1.055-.151.094-10.129,7.76-17.95,23.7-15.512,36.608.49,2.6,3.667,2.321,4.771.505.632,2.242,4.381,2.82,5.1.024a119,119,0,0,1,9.173-24.258c1.428,3.086,3.643,5.649,5.579,8.477,1.918,2.8,6.508.151,4.571-2.672-1.8-2.632-4.118-5.071-5.388-8.03,4.1,3.685,9.043,6.015,14.238,8.172,5.267,2.184,13.648,4.278,16.232,9.942a2.118,2.118,0,0,0,2.384,1.337c1.74,7.458,5.273,20.247-.118,26.164a2.888,2.888,0,0,0-.251.339c-2.593-.569-4.535,3.322-1.861,4.877,13.367,7.772,16.943-10.61,17.636-20.032A53.742,53.742,0,0,0,1162.121,686.745Z" transform="translate(-1040.428 -658.935)" fill="#2abc8f" fill-rule="evenodd"/>
      <path id="パス_2740" data-name="パス 2740" d="M1114.057,867.5a24.633,24.633,0,0,0-1.694-2.3c-.051-.063-.405-.511-.478-.6a12.513,12.513,0,0,1-.741-1.074,2.647,2.647,0,0,0-4.572,2.672,24.575,24.575,0,0,0,1.694,2.3c.051.064.405.511.478.6.266.345.511.705.741,1.074a2.647,2.647,0,0,0,4.572-2.669Z" transform="translate(-1049.161 -799.959)" fill="#2abc8f" fill-rule="evenodd"/>
      <path id="パス_2741" data-name="パス 2741" d="M1074.2,758.116c-.139,1.936-1.183,2.932-3,3.73-11.585,5.086-23.559,5.6-35.816,3.392a71.745,71.745,0,0,1-12.2-3.053,4.872,4.872,0,0,0-3.815.054,3.621,3.621,0,0,0-2.366,2.351c-.877,3.246-3.016,5.534-5.655,7.482-1.861,1.374-3.606,2.9-5.512,4.45v4.965c.375.263.587.532.826.56,4,.481,3.96.5,4.088,4.451.094,2.889.357,5.776.547,8.659.088,1.319-.36,1.649-2.205,1.628l.109.118c-.263-3.891-.526-7.785-.8-11.845-2.644-1.141-5.373.021-8.054-.133-2.744-.154-5.51-.13-8.26-.012-2.732.118-5.455.448-8.414.7-.221,3.125-.427,6.13-.66,9.131a4.107,4.107,0,0,1-.36,1.631c-.139.254-.717.266-1.219.424a11.634,11.634,0,0,1-.29-1.812c-.024-3.6-.012-7.207-.012-10.989,1.785-.472,3.434-.908,5.283-1.4-.088-.977-.172-1.939-.248-2.8a4.381,4.381,0,0,0-.514-.33c-6.393-2.656-5.6-3.174-7.007-8.834a22.374,22.374,0,0,1-.614-4.3c-.2-4.048-.012-8.114-.678-12.141a11.118,11.118,0,0,1,.054-3.038c.324-2.82,1.939-4.611,4.774-4.686A7.593,7.593,0,0,0,986.966,745c1.186-.9,1.643-.684,4.7.227,2.257-.723,4.278-1.374,6.547-2.1.463-2.551.257-5.449.345-8.332.058-1.885.024-3.782.233-5.652a9.936,9.936,0,0,1,1-3.295,3.547,3.547,0,0,1,3.579-2,3.356,3.356,0,0,1,3.019,2.145,20.531,20.531,0,0,1,1.764,7.585c.251,5.655.478,11.309.723,16.964.036.859.124,1.721.2,2.717,3.546,1.337,7.237,2.463,9.013,6.356a29.771,29.771,0,0,0,12.187-6.825c3.522-3.286,4.481-7.63,4.314-12.526a25.212,25.212,0,0,1-9.264-10.039c-6.662-1.767-10.1-6.517-12.09-12.647-3.858-11.869-2.777-23.46,1.957-34.836.835-2.006,1.815-3.951,2.732-5.924a38.253,38.253,0,0,1,7.4-10.686,8.472,8.472,0,0,1,3.446-2.52,15.272,15.272,0,0,0,4.832-2.572,23.659,23.659,0,0,1,5.788-2.926c7.918-2.551,15.648-2.378,23.166,1.7a37.83,37.83,0,0,1,13.987,12.765,59.85,59.85,0,0,1,9.116,26.059c.49,4.172.69,8.387.8,12.589a47.122,47.122,0,0,1-.566,6.493,16.368,16.368,0,0,1-6.317,11.034c-2.98,2.472-6.142,3.812-10.014,2.321a11.591,11.591,0,0,0-1.852-.366c-1.9,1.6-2.947,3.87-4.4,5.812a2.843,2.843,0,0,0-.336,1.664c.154,6.447,2.009,12.02,8.105,15.318,2.672,1.446,5.358,2.871,8.087,4.205,3.516,1.719,7.08,3.337,10.623,5,4.478,2.106,7.591,5.758,10.656,9.449a7.729,7.729,0,0,1,1.071,1.885c3.116,7.331,4.075,15.025,4.1,22.836-2.063.584-2.7.406-2.814-.808-.224-2.448-.4-4.9-.463-7.364-.115-4.272-1.383-8.275-2.714-12.265a8.746,8.746,0,0,0-1.41-2.666c-3.47-4.342-7.391-8.09-12.671-10.278-3.864-1.6-7.57-3.576-11.349-5.385a16.727,16.727,0,0,1-6.338-3.555c-3.615-2.853-6.287-6.369-6.862-11.167a9.6,9.6,0,0,0-1.077-3.86,24.055,24.055,0,0,1-10.6,4.121c-3.969.66-7.591-1.34-11.872-1.839-.641,3.821-1.156,7.509-3.452,10.659-2.321,3.18-5.661,5.092-9.1,7.718,1.958.735,3.382,1.567,4.9,1.788,4.714.681,9.343,1.782,14.15,2.06,9.745.566,19.052-.62,27.807-5.14A14.138,14.138,0,0,1,1074.2,758.116Zm-60.734-53.923a8.332,8.332,0,0,0,1.265-.206c.266-.1.478-.33.735-.46,2.544-1.31,4.281-1.044,6.142,1.1.653.753.59,1.609-.781,2.148a11.915,11.915,0,0,0-1.607-1.074,2.143,2.143,0,0,0-3.071.647,5.06,5.06,0,0,0-1.044,2.293,9.723,9.723,0,0,0,5.171,9.285c.181.094.517-.1,1.062-.233-.175-1.743-.354-3.54-.514-5.15.956-.917,1.673-.49,1.924.185a39.793,39.793,0,0,1,1.107,4.2c.7,2.811,1.262,5.67,2.136,8.429a21.3,21.3,0,0,0,14.029,14.359c8.3,2.9,17.312,1.216,22.685-6.853.717-1.077,1.425-2.166,2.239-3.4-1.591-2.2-.644-4.084.769-5.891.714-.911,1.446-1.809,2.151-2.729a11.009,11.009,0,0,0,2.312-7.279,63.229,63.229,0,0,0-.932-10.371,18.282,18.282,0,0,0-8.677-12.934c-3.222-1.951-6.535-3.758-9.769-5.7a87.784,87.784,0,0,1-8.438-5.355,40.65,40.65,0,0,1-5.062-5.349,2.04,2.04,0,0,1-.454-1.2,1.482,1.482,0,0,1,.408-1.122,1.23,1.23,0,0,1,1.168-.012,19.515,19.515,0,0,1,1.41,1.61,37.933,37.933,0,0,0,4.641,4.535c2.7,1.936,5.658,3.525,8.5,5.255,3.47,2.112,6.986,4.151,10.4,6.348a16.826,16.826,0,0,1,7.167,9.551,46.214,46.214,0,0,1,2.154,15.875,11.243,11.243,0,0,1-1.682,5.764c-.953,1.449-2.042,2.808-3.035,4.233-.469.675-.85,1.419-1.31,2.193a7.162,7.162,0,0,0,5.443,1.64,9.319,9.319,0,0,0,5.694-1.864c2.8-2.287,4.82-5.035,5.325-8.686a44.228,44.228,0,0,0,.662-6.919c-.088-4.054-.312-8.13-.793-12.153a57.824,57.824,0,0,0-8.632-24.866,36.511,36.511,0,0,0-13.79-12.323c-7.885-4.278-20.936-3.246-27.447,2.847-.608.569-1.4,1.307-2.121,1.319-2.2.027-3.482,1.361-4.635,2.853a60.222,60.222,0,0,0-5.022,7.074,88.823,88.823,0,0,0-4.653,9.821A46.248,46.248,0,0,0,1013.464,704.193Zm-10.081,78.59c.172-3.022.318-5.582.427-7.494,3.122-2.472,5.773-4.481,8.317-6.611a9.393,9.393,0,0,0,3.107-6.057c.436-2.965-.593-4.656-3.377-5.788a17.322,17.322,0,0,0-9-.7,4.25,4.25,0,0,0-1.842,1.053,2.125,2.125,0,0,0-.626,2.378,2.047,2.047,0,0,0,1.849,1.6c1.3.091,2.6.042,3.906.036,1.28-.006,2.6-.408,3.782.372.481,1.222-.39,1.749-1.21,1.821a30.537,30.537,0,0,1-6.06.121c-2.587-.278-4.163,1.053-5.391,2.932a47.205,47.205,0,0,0-2.339,4.641c-.242.481-.551.926-.8,1.337-1.337-.378-1.537-1.219-1.141-2.094.9-1.976,1.93-3.885,2.877-5.836.109-.224.015-.551.015-.989l-2.2-1.231-7.425-.042c-1.25,1.6-3.591,1.734-5.706,1.9-.777,3,.384,5.449.856,7.99a5.573,5.573,0,0,0,4.566,4.656c.929.236,1.83.587,2.6.838.56,1.921-.732,3.845.9,5.161Zm-.581-56.846c-.7,1.219-1.3,1.806-1.371,2.451a110.309,110.309,0,0,0,.457,24.161,2.538,2.538,0,0,0,.315.787,3.452,3.452,0,0,0,.408.5l3.664-.762c0-4.251.094-8.29-.033-12.323-.091-2.886-.417-5.767-.762-8.638a21.629,21.629,0,0,0-.992-4.205C1004.29,727.326,1003.646,726.893,1002.8,725.937Zm-8.553,27.239H994.1c0,1.437-.094,2.886.036,4.311a4.869,4.869,0,0,0,.856,2.36,2.5,2.5,0,0,0,1.776.766c.312,0,.744-.735.932-1.216.411-1.047.59-2.19,1.062-3.2,1.292-2.78.69-5.618.333-8.429-.136-1.08-1.361-1.637-2.747-1.576A2.007,2.007,0,0,0,994.279,748C994.17,749.721,994.249,751.448,994.249,753.176Zm-2.411.36c-.063-.9-.112-2.774-.363-4.62a2.682,2.682,0,0,0-2.886-2.082,2.337,2.337,0,0,0-1.855,2.148,21.3,21.3,0,0,0,.091,8.154,5.953,5.953,0,0,0,1.4,2.6,2.307,2.307,0,0,0,1.951.484,2.177,2.177,0,0,0,1.331-1.416A46.138,46.138,0,0,0,991.837,753.536Zm-7.667-.408a15.375,15.375,0,0,0,.251-2.139,1.948,1.948,0,0,0-1.322-2.03,2.053,2.053,0,0,0-2.384.563,6.282,6.282,0,0,0-1.241,2.666,14.853,14.853,0,0,0,1.864,8.8,1.741,1.741,0,0,0,1.334.859,2.447,2.447,0,0,0,1.737-1,6.73,6.73,0,0,0,.384-2.95C984.673,756.165,984.352,754.449,984.171,753.127Zm39.362-27.069c-.221-.959-.369-1.773-.6-2.559-.239-.817-.563-1.61-.877-2.487-1.7-.285-3.147-1.141-5.007-1.337C1019.373,724.294,1020.174,725.09,1023.532,726.058Z" transform="translate(-959.233 -656.429)" fill-rule="evenodd"/>
      <path id="パス_2742" data-name="パス 2742" d="M1334.567,1083.874a16.861,16.861,0,0,1-1.894-.98c-.169-.115-.185-.529-.188-.811q-.118-7.1-.206-14.208a.556.556,0,0,1,.109-.4,3.165,3.165,0,0,1,1-.608.775.775,0,0,1,.638.417C1334.627,1072.671,1335.553,1078.056,1334.567,1083.874Z" transform="translate(-1206.835 -942.686)" fill-rule="evenodd"/>
      <path id="パス_2743" data-name="パス 2743" d="M979.641,813.17c-.239.269-.472.768-.79.829a2.6,2.6,0,0,1-1.573-.209,1.9,1.9,0,0,1-.651-1.074q-1.316-4.1-2.572-8.22a1.9,1.9,0,0,1-.121-1.222,2.635,2.635,0,0,1,1.171-1.113c.275-.121.823.145,1.131.384a2.275,2.275,0,0,1,.717,1.032q1.321,4.094,2.56,8.214A7.1,7.1,0,0,1,979.641,813.17Z" transform="translate(-956.86 -758.049)" fill-rule="evenodd"/>
      <path id="パス_2744" data-name="パス 2744" d="M1042.934,805.936c-1.246,3.071-2.411,6.005-3.655,8.907a1.207,1.207,0,0,1-1.1.445,3.387,3.387,0,0,1-1.189-1.113,1.067,1.067,0,0,1-.03-.835c.865-2.6,1.7-5.216,2.7-7.766a2.069,2.069,0,0,1,1.64-1.026C1041.808,804.574,1042.277,805.343,1042.934,805.936Z" transform="translate(-1000.817 -759.733)" fill-rule="evenodd"/>
      <path id="パス_2745" data-name="パス 2745" d="M926.191,856.565c-2.756-1.6-5.358-3.065-7.912-4.614a1.4,1.4,0,0,1-.427-1.906,1.378,1.378,0,0,1,1.843-.638c2.43,1.2,4.829,2.469,7.177,3.821a1.675,1.675,0,0,1,.584,1.467C927.32,855.291,926.751,855.784,926.191,856.565Z" transform="translate(-917.655 -790.924)" fill-rule="evenodd"/>
      <path id="パス_2746" data-name="パス 2746" d="M1080.03,1120.33c-.154.209-.272.487-.481.6-.109.06-.375-.163-.569-.26a2.423,2.423,0,0,1,.372-.121c.26-.042.517-.07.781-.1C1080.139,1120.448,1080.03,1120.33,1080.03,1120.33Z" transform="translate(-1030.171 -979.977)" fill-rule="evenodd"/>
      <path id="パス_2747" data-name="パス 2747" d="M1177.76,880.282a7.335,7.335,0,0,1,4.723-1.352q6.953.014,13.905.088a2.328,2.328,0,0,1,.784.33c.941,3.029-1.144,5.155-2.327,7.509a6.755,6.755,0,0,1-4.729,3.507,7.981,7.981,0,0,1-7.343-1.528C1179.817,886.439,1178.689,884.606,1177.76,880.282Zm17.052,1.377a13.058,13.058,0,0,0-4.88-.433c-1.591-.009-3.189.036-4.777.139-1.522.1-3.128-.369-4.78.59a9.577,9.577,0,0,0,4.478,5.664c2.29,1.458,6.218.578,7.866-1.558A11.071,11.071,0,0,0,1194.812,881.659Z" transform="translate(-1099.065 -811.612)" fill-rule="evenodd"/>
      <path id="パス_2748" data-name="パス 2748" d="M1157.446,723.7c.357.8.708,1.431.932,2.106a12.369,12.369,0,0,0,4.015,6.057,5.567,5.567,0,0,1,1.343,1.655,1.163,1.163,0,0,1-.215,1.1,1.734,1.734,0,0,1-1.165.2,1.351,1.351,0,0,1-.744-.405,21.686,21.686,0,0,1-5.8-8.508C1155.416,724.8,1155.549,723.909,1157.446,723.7Z" transform="translate(-1083.631 -703.347)" fill-rule="evenodd"/>
      <path id="パス_2749" data-name="パス 2749" d="M1152.752,792.95c-1.15-.729-1.113-1.591-.348-2.23a8.654,8.654,0,0,1,8.547-1.461c.448.139.835.775,1.041,1.268.1.236-.221.741-.478,1a.966.966,0,0,1-.823.051C1157.75,790.481,1155.134,791.386,1152.752,792.95Z" transform="translate(-1080.998 -748.714)" fill-rule="evenodd"/>
      <path id="パス_2750" data-name="パス 2750" d="M1233.278,786.123a12.165,12.165,0,0,1,2.245.687c.345.151.508.911.557,1.407a1.349,1.349,0,0,1-1.026.487,8.254,8.254,0,0,0-6.662.212,1.377,1.377,0,0,1-1.062-.393,2.149,2.149,0,0,1,.451-1.434C1229.058,785.971,1230.673,786.017,1233.278,786.123Z" transform="translate(-1133.638 -746.848)" fill-rule="evenodd"/>
      <path id="パス_2751" data-name="パス 2751" d="M1233.958,819.853a1.5,1.5,0,0,1-1.374-1.722,1.785,1.785,0,0,1,1.634-1.616c.747-.118,1.422.8,1.325,1.737A1.63,1.63,0,0,1,1233.958,819.853Z" transform="translate(-1137.292 -768.075)" fill-rule="evenodd"/>
      <path id="パス_2752" data-name="パス 2752" d="M1170.521,819.6a1.6,1.6,0,0,1,1.362-1.846,1.468,1.468,0,0,1,1.488,1.289,2.051,2.051,0,0,1-1.153,2.118C1171.538,821.381,1170.606,820.527,1170.521,819.6Z" transform="translate(-1094.011 -768.943)" fill-rule="evenodd"/>
      <path id="パス_2753" data-name="パス 2753" d="M1205.891,865.047a3.928,3.928,0,0,1-.941.526c-.944.163-2,.52-2.433-.808a.885.885,0,0,1,.275-.732,1.817,1.817,0,0,1,2.635.06C1205.615,864.263,1205.67,864.578,1205.891,865.047Z" transform="translate(-1116.322 -800.849)" fill-rule="evenodd"/>
    </g>
    <rect id="長方形_4869" data-name="長方形 4869" width="240" height="202" transform="translate(1375 3471)" fill="none"/>
  </g>
</svg>
