<svg xmlns="http://www.w3.org/2000/svg" width="240" height="202" viewBox="0 0 240 202">
  <g id="top-goodpoint-3" transform="translate(-1062 -3410)">
    <g id="グループ_1942" data-name="グループ 1942" transform="translate(1073.337 3460.205)">
      <path id="パス_2850" data-name="パス 2850" d="M6051.463,56.807c-.334-6.514-4.4-11.174-8.407-15.852,1.706-1.53,2.058-3.529-.4-5.223-3.741-2.586-8.7-1.442-12.986-1.026a22.471,22.471,0,0,1,1.66-3.834,1.489,1.489,0,0,0-1.267-2.2c-4.784-.387-8.935,1.753-12.628,4.6-.833.639-1.635,1.325-2.45,1.987a8.892,8.892,0,0,1-.862.616,45.188,45.188,0,0,0-2.662-4.139,1.46,1.46,0,0,0-2.075,0c-1.755,2.141-2.408,4.8-3.426,7.256a1.561,1.561,0,0,0-.616-.01,15.238,15.238,0,0,0-10.5,8.174,19.663,19.663,0,0,0-1.97,6.954,11.136,11.136,0,0,0,.049,2.652c-1.264,6.918,1.841,12.679,4.51,18.961.5,1.172,2.439.815,2.679-.351.95-4.538,3.816-7.885,6.3-11.667,2.158-3.277,2.644-7.451,4.966-10.605,3.793,2.1,7.064,5,10.91,7.03.873.463,2.351-.089,2.2-1.266-.311-2.521-1.055-4.966-1.348-7.475a33.473,33.473,0,0,1,10.634,8.506,1.473,1.473,0,0,0,2.679-1.125,13.148,13.148,0,0,1-.158-2.937c2.017,2.51,3.324,5.64,4.784,8.454,1.741,3.359,1.847,7.48,4.648,10.271a1.476,1.476,0,0,0,2.076,0C6051.744,69.558,6051.773,62.874,6051.463,56.807Z" transform="translate(-5914.631 -27.361)" fill="#7e8082"/>
      <path id="パス_2851" data-name="パス 2851" d="M7336.093,2147.112c.593-6.467-1.63-12.886-1.654-19.364-.022-5.692.065-11.508-3.81-16.139-3.042-3.635-7.562-5.312-12.029-6.52-4.022-1.09-7.8-4.567-12.106-4.437a1.763,1.763,0,0,0-1.1.117,4.38,4.38,0,0,0-.464.082c-1.683.41-1.173,2.8.334,2.866,1.806,5.827.265,12.475-.316,18.373-.809,8.25-.259,16.849.068,25.122l31.073-.061A.261.261,0,0,1,7336.093,2147.112Z" transform="translate(-7164.379 -2002.176)" fill="#2abc8f"/>
      <path id="パス_2852" data-name="パス 2852" d="M4701.108,2192.428c-.141-3.3-.563-6.566-.563-9.878a190.721,190.721,0,0,0-1.172-25.021c-.217-1.63-2.516-1.835-2.89-.586-2.861,1.588-6.126,2.1-9.269,2.931a28.2,28.2,0,0,0-8.037,3.763,17.51,17.51,0,0,0-7.944,11.514c-.825,4-1.788,8.12-2.468,12.244-.223-2.366-.383-4.743-.711-7.093a2.687,2.687,0,0,0-2.539-2.592c-3.449-.171-7.2.489-10.65.767-4,.323-7.9,1.407-11.907,1.762-1.688.15-3.888-.251-5.184,1.108-1.384,1.448-.958,4.782-.978,6.538-.037,3.615,1.646,7.039,1.417,10.584a1.392,1.392,0,0,0,.076.581,1.421,1.421,0,0,0,1.39,1.764c9.673.006,19.346.135,29.019,0a1.433,1.433,0,0,0,1.081-.5l30.489-.06C4701.417,2197.955,4701.211,2194.884,4701.108,2192.428Z" transform="translate(-4622.338 -2055.096)" fill="#2abc8f"/>
      <path id="パス_2853" data-name="パス 2853" d="M6052.1,2293.729c-19.626-.383-39.566,4.438-59.018.052-1.841-.415-2.623,2.411-.778,2.827,19.749,4.453,39.879-.335,59.8.053C6053.994,2296.7,6053.99,2293.765,6052.1,2293.729Z" transform="translate(-5913.317 -2186.215)" fill="#bebfc2"/>
      <path id="パス_2854" data-name="パス 2854" d="M6042.148,2610.868c-9.717,2.341-20.133,1.01-30.037,1.134-9.552.119-20.023,1.83-29.283-1.134-1.847-.591-2.632,2.24-.8,2.827,9.51,3.044,20.272,1.426,30.083,1.238,10.21-.195,20.8,1.178,30.834-1.238C6044.827,2613.242,6044.03,2610.415,6042.148,2610.868Z" transform="translate(-5903.531 -2488.425)" fill="#bebfc2"/>
      <path id="パス_2855" data-name="パス 2855" d="M6042.87,2942.179c-20.062.573-40.181-.935-60.187,1.173-1.86.2-1.878,3.129,0,2.931,20.007-2.108,40.126-.6,60.188-1.172C6044.756,2945.057,6044.762,2942.125,6042.87,2942.179Z" transform="translate(-5903.812 -2804.273)" fill="#bebfc2"/>
      <path id="パス_2856" data-name="パス 2856" d="M4461.174,348.9c.438,0,.649.066.733-.01a8.578,8.578,0,0,0,2.826-4.891,14.482,14.482,0,0,0-.275-6.424,2.57,2.57,0,0,0-.629-1.261,3.307,3.307,0,0,0-1.5-.572c-.362-.062-.729.665-.749,1.331-.008.24.021.48.014.719q-.152,4.433-.309,8.865C4461.253,347.376,4461.213,348.089,4461.174,348.9Zm-86.913,26.239c-.581-.495-.928-.823-1.309-1.106a4.92,4.92,0,0,0-.829-.451c-2.587-1.215-5.01-.179-5.128,3.075-.035,1.035-.012,2.073,0,3.11a3.9,3.9,0,0,0,2.11,3.268c1.538.968,2.935.26,3.34-1.592a23.311,23.311,0,0,0,.42-2.835A5.2,5.2,0,0,1,4374.261,375.143Zm80.9,4.541c-.152-.384-.182-.735-.338-.806-1.082-.492-1.143-1.471-1.15-2.419-.022-2.639.018-5.281.035-7.921,0-.442.3-.923-.3-1.415-.516.423-1.053.865-1.593,1.3a52.931,52.931,0,0,1-4.692,3.749,16.427,16.427,0,0,1-16.727.917,46.515,46.515,0,0,1-4.694-2.914c-.45-.284-.909-.557-1.583-.969.094,3.207.18,6.137.264,8.969-.724.708-1.544,1.134-1.8,2.156a11.206,11.206,0,0,0,6.255,5.549,30.9,30.9,0,0,0,7.035,1.45,24.416,24.416,0,0,0,8.608-.275A16.376,16.376,0,0,0,4455.163,379.683Zm-123.068-17.452a6.406,6.406,0,0,0,.174,3.749,66.758,66.758,0,0,0,4.387,10.679c2.789,5.532,5.073,11.279,7.5,16.959a49.387,49.387,0,0,0,4.694,8.652,4.61,4.61,0,0,0,1.333,1.341,2.392,2.392,0,0,1,1.149,2c.117,1.2.142,2.407.27,3.605a6.815,6.815,0,0,0,.444,1.346c1.391-.245,2.638-.524,3.9-.671,2.468-.288,4.946-.483,7.414-.758.946-.106,1.882-.326,2.875-.5a27.97,27.97,0,0,0-.825-5.014q-.4-1.76-.7-3.544a2.55,2.55,0,0,1,.649-2.2,11.526,11.526,0,0,1,3.574-2.791,25.408,25.408,0,0,0,2.679-1.6,36.723,36.723,0,0,0,3.251-2.485c2.372-2.077,4.16-4.475,3.958-7.867-.088-1.443-.09-2.893-.223-4.332a2.882,2.882,0,0,0-1.191-2.459,2.327,2.327,0,0,0-2.1,2.321,30.065,30.065,0,0,1-.588,3.807c-.665,2.733-2.7,3.825-5.481,3.3-2.1-.4-4.3-2.973-4.622-5.349a15.022,15.022,0,0,1,.072-5.038c.693-3.274,2.112-4.377,4.987-4.669a4.561,4.561,0,0,1,2.593.312c.852.43,1.7.869,2.539,1.329a1.559,1.559,0,0,0,1.831-.032,3.471,3.471,0,0,0-1.366-3.589,9.35,9.35,0,0,0-6.251-2.139,3.9,3.9,0,0,0-2.25.724,19.808,19.808,0,0,0-5.261,5.244c-.216.337-.383.71-.623,1.028a1.1,1.1,0,0,1-1.96-.14,17.462,17.462,0,0,1-1.077-2.916c-1.056-4.205-2-8.438-3.084-12.636-.782-3.03-1.715-6.021-2.583-9.028a4.04,4.04,0,0,0-.221-.687,1.258,1.258,0,0,0-1.1-.819,1.142,1.142,0,0,0-.983,1.188,19.244,19.244,0,0,0,.116,3.117,51.453,51.453,0,0,0,.959,5.212c1.366,5.462,1.917,11.065,2.974,16.579a2.05,2.05,0,0,1-1.428,2.231c-.686.217-1.356-.182-1.872-1.139a8.655,8.655,0,0,1-.506-1.092c-.966-2.551-1.976-5.087-2.865-7.665-1.461-4.251-2.853-8.527-4.256-12.8a7.117,7.117,0,0,0-1.62-2.921,1.3,1.3,0,0,0-1.036-.361,1.27,1.27,0,0,0-.7.849,5.675,5.675,0,0,0-.078,1.915c.189,1.35.43,2.7.741,4.023a157.915,157.915,0,0,0,5.069,17.082,9.113,9.113,0,0,1,.616,3.532,1.679,1.679,0,0,1-1.146,1.677,1.844,1.844,0,0,1-1.993-.49,8.794,8.794,0,0,1-1.04-1.323,89.773,89.773,0,0,1-6.607-11.743,15.559,15.559,0,0,0-1.241-2.331A1.38,1.38,0,0,0,4332.094,362.231Zm18.1,4.074c-.231-1.667-.4-3.345-.706-5-.574-3.08-1.224-6.145-1.853-9.214a11.193,11.193,0,0,1-.076-4.55,3.284,3.284,0,0,1,4.584-2.524,3.59,3.59,0,0,1,1.487,1.139,6.066,6.066,0,0,1,.9,1.95c1.874,6.646,3.756,13.289,5.272,20.03a13.852,13.852,0,0,0,.571,1.582c1.309-1.2,2.47-2.3,3.67-3.348a10.8,10.8,0,0,1,1.926-1.438,6.026,6.026,0,0,1,2.234-.791,12.241,12.241,0,0,1,8.954,2.85,4.142,4.142,0,0,1,1.063,1.292,7.649,7.649,0,0,1,.893,5.671c.24.382.541.852.834,1.326a7.03,7.03,0,0,1,1.1,3.405c.08,1.926.123,3.855.117,5.783a8.388,8.388,0,0,1-1.508,4.755,12.085,12.085,0,0,1-4.155,4.263,20.7,20.7,0,0,0-1.931,1.436c-1.051.734-2.124,1.437-3.193,2.145-.734.487-1.481.956-2.218,1.441a1.979,1.979,0,0,0-.944,2.272c.551,2.424,1.086,4.851,1.653,7.386a11.568,11.568,0,0,0,4.025-.41c2.636-.421,3.011-.163,3.2,2.566a9.388,9.388,0,0,0,.786,3.932,3.319,3.319,0,0,0,.491-1.833c.242-2.232.359-4.485.721-6.7a18.718,18.718,0,0,1,7.41-12.262,11.958,11.958,0,0,1,2.967-1.553c6.081-2.3,12.213-4.475,18.263-6.855,3.727-1.466,7.342-3.218,11-4.858a11.061,11.061,0,0,0,1.468-.829c1.717-1.114,2.8-2.507,2.593-4.759-.211-2.315-.133-4.656-.238-6.983a1.967,1.967,0,0,0-.5-1.283c-3.545-3.081-4.909-7.247-5.894-11.614a6.914,6.914,0,0,0-.348-.917c-3.058-1.04-4.818-3.355-6.024-6.168a16.68,16.68,0,0,1-1.127-10.141,7.622,7.622,0,0,1,2.572-4.3c-.1-.513-.176-.979-.268-1.441-.334-1.651-.684-3.3-1-4.954-.215-1.1-.4-2.214-.588-3.323-.838-4.842-.719-9.566,1.381-14.149a24.08,24.08,0,0,1,4.334-6.61,6.812,6.812,0,0,1,3.3-1.886,3,3,0,0,1,1.639.1,1.228,1.228,0,0,1,.625.907,1.365,1.365,0,0,1-.457,1.013,2.948,2.948,0,0,1-1.12.349,4.755,4.755,0,0,0-2.429,1.474,19.508,19.508,0,0,0-5.294,13.095,24.865,24.865,0,0,0,.542,5.982c.6,2.578,1,5.2,1.491,7.805.045.234.139.457.26.843.353-.046.713-.111,1.075-.137a1.162,1.162,0,0,1,1.25.9,2.362,2.362,0,0,1,.129.706c.018,1.849.039,3.7.018,5.547a2.006,2.006,0,0,1-.318,1.125,1.333,1.333,0,0,1-.978.508,1.186,1.186,0,0,1-.865-.669,8.314,8.314,0,0,1-.219-2.139,3.491,3.491,0,0,0-.985-2.616,2.525,2.525,0,0,0-1.672,1.909,10.287,10.287,0,0,0-.268,5.466,18.452,18.452,0,0,0,1.907,5.176,5.065,5.065,0,0,0,2.058,2.141c.551-.222.393-.568.346-.849-.283-1.744-.588-3.485-.877-5.229a6.834,6.834,0,0,1-.145-1.188,1.315,1.315,0,0,1,1-1.209,1.2,1.2,0,0,1,1.311.824,11,11,0,0,1,.387,1.633c.645,3.474,1.149,6.981,1.944,10.421,1.491,6.456,2.593,7.923,7.75,11.985a37.662,37.662,0,0,0,5.007,3.343,15.31,15.31,0,0,0,11.4,1.681,11.981,11.981,0,0,0,4.139-1.891,40.013,40.013,0,0,0,8.389-7.912,19.367,19.367,0,0,0,3.771-10.271c.393-3.835.682-7.683.9-11.533a7.909,7.909,0,0,1,1.036-3.561c-.158-1.819-.954-3.47-.631-5.311a2.733,2.733,0,0,1,2.128.987c.813.761,1.362.584,1.761-.472.143-.376.238-.767.359-1.15A35.713,35.713,0,0,0,4465.4,315.9a18.985,18.985,0,0,0-2.593-7.7,11.158,11.158,0,0,0-1.951-2.1c-.281-.273-.709-.393-1.006-.655a1.074,1.074,0,0,1-.326-1.3,1.24,1.24,0,0,1,1.354-.768,4.8,4.8,0,0,1,1.286.633,10.219,10.219,0,0,1,3.246,3.82A25.943,25.943,0,0,1,4468,320.182a47.366,47.366,0,0,1-2.2,11.8,3.858,3.858,0,0,0,.293,3.408,7.282,7.282,0,0,1,.917,2.958,30.69,30.69,0,0,1,.184,5.288,11.445,11.445,0,0,1-.965,3.2,10.765,10.765,0,0,1-.985,1.655c-1.554,2.534-1.554,2.534-4.418,3.56-.18.868-.379,1.8-.567,2.732a19.617,19.617,0,0,1-3.156,7.751,3.661,3.661,0,0,0-.819,2.2c-.012,2.811-.109,5.623-.168,8.434-.009.482-.008.965.016,1.447.115,2.195,1,3.91,3.191,4.627,1.888.616,3.6,1.8,5.706,1.73a2.152,2.152,0,0,1,.887.347c4.334,2.125,8.915,3.64,13.416,5.353,3.6,1.372,7.217,2.7,10.833,4.029a11.05,11.05,0,0,1,4.282,2.615c1.055,1.1,2.142,2.173,3.111,3.345a17.886,17.886,0,0,1,3.607,8.816c.52,3.244.768,6.533,1.059,9.809.314,3.518.561,7.043.8,10.567.088,1.281.11,2.569.1,3.853a1.245,1.245,0,0,1-1.172,1.284,1.28,1.28,0,0,1-1.3-1.168c-.145-1.758-.264-3.521-.314-5.285-.105-3.7-.487-7.366-.932-11.033-.165-1.353-.243-2.722-.288-4.085a20.886,20.886,0,0,0-2.177-8.822,14.831,14.831,0,0,0-8.262-7.675c-3.854-1.379-7.648-2.918-11.477-4.37-1.715-.651-3.444-1.26-5.2-1.9a3.14,3.14,0,0,0-.338,2.168c.07,10.772.171,21.545.233,32.316.016,2.651-.07,5.3-.117,7.953a2.652,2.652,0,0,1-.109.711,1.076,1.076,0,0,1-1.061.814,1.039,1.039,0,0,1-1.114-.738,4.671,4.671,0,0,1-.156-1.425c.059-1.847.206-3.692.225-5.539.083-8.039.175-16.078.18-24.117,0-3.374-.208-6.747-.331-10.121-.027-.722-.107-1.443-.156-2.164a1.41,1.41,0,0,0-.891-1.312c-.812-.346-1.6-.745-2.437-1.029-2.8-.957-5.624-1.874-8.549-2.844-.09.048-.395.105-.489.278a13.62,13.62,0,0,1-3.818,3.932,19.019,19.019,0,0,1-9.4,4.024,36.773,36.773,0,0,1-15.209-1.363,15.2,15.2,0,0,1-7.08-5.172c-.3-.361-.564-.754-.916-1.226-.493.213-.934.366-1.343.582a49.86,49.86,0,0,1-7.937,3.429c-.229.073-.432.226-.661.291a3.145,3.145,0,0,0-2.536,3.763c.158,1.6.062,3.214.121,4.819.149,4.1.137,8.21.524,12.285.594,6.258.5,12.526.668,18.791.04,1.445.163,2.887.225,4.331a7.515,7.515,0,0,1-.057,1.441,1.036,1.036,0,0,1-.95.935,1.189,1.189,0,0,1-1.29-.848,2.812,2.812,0,0,1-.135-.705c-.058-2-.145-4.008-.146-6.013,0-4.9.292-9.806-.281-14.7a26.608,26.608,0,0,1-.168-3.371c.063-5.955-.475-11.884-.8-17.821a3.814,3.814,0,0,0-.178-.616,7.735,7.735,0,0,0-1.286.253c-2.332.87-4.653,1.771-6.977,2.662-2.173.834-4.3,1.849-6.531,2.46-3.064.839-5.144,2.864-7.088,5.147-1.78,2.089-2.478,4.659-3.05,7.244a36.078,36.078,0,0,0-.485,4.3c-.219,2.237-.459,4.473-.629,6.715-.273,3.6-.5,7.207-.745,10.81-.027.4-.018.805-.082,1.2a1.247,1.247,0,0,1-1.153,1.051,1.2,1.2,0,0,1-1.235-.932c-.168-.784-.3-1.579-.395-2.376q-.372-3.233-.687-6.472a64.478,64.478,0,0,0-1.673-10.107,10.594,10.594,0,0,0-1.168.006c-4.068.468-8.158.81-12.194,1.477-2.374.392-4.8.281-7.142.926a18.363,18.363,0,0,1-3.354.237c-1.181.093-2.41-.011-3.527.79a52.773,52.773,0,0,0,.291,6.707c.146,1.921.315,3.843.536,5.757.129,1.108.413,2.2.569,3.305a2.328,2.328,0,0,1-.125,1.138,1.2,1.2,0,0,1-1.129.762,1.34,1.34,0,0,1-1.271-.925,5.788,5.788,0,0,1-.2-1.184q-.548-7.691-1.083-15.385c-.143-2.008.329-2.615,2.261-2.9.951-.14,1.9-.29,2.961-.451a8.958,8.958,0,0,0-.008-4.2,1.225,1.225,0,0,0-.363-.6c-3.007-3.122-4.837-6.942-6.509-10.869-2.546-5.982-4.94-12.027-7.834-17.864a60.549,60.549,0,0,1-4.4-10.935,9.485,9.485,0,0,1-.018-5c.547-2.081,1.966-2.64,3.82-1.62a7.946,7.946,0,0,1,3.482,3.844c1.131,2.481,2.4,4.9,3.656,7.323a5.827,5.827,0,0,0,1.774,2.329c-.182-.809-.258-1.344-.42-1.851-1.538-4.821-3.054-9.65-4.223-14.578a17.87,17.87,0,0,1-.758-5.469,7.7,7.7,0,0,1,.151-1.434,3.372,3.372,0,0,1,5.706-1.573,11.339,11.339,0,0,1,2.364,4.152q1.923,5.961,3.895,11.908c.245.727.229,1.607,1,2.088.066.127.135.253.2.378C4350.361,366.521,4350.275,366.413,4350.192,366.3Z" transform="translate(-4329.466 -286.749)" fill="#231f20" fill-rule="evenodd"/>
      <path id="パス_2857" data-name="パス 2857" d="M6458.423,480.9c0,1.413,0,2.69,0,3.967,0,.562-.029,1.126-.006,1.686.063,1.484-1.069,2.524-2.787,1.578a6.168,6.168,0,0,1-1.5-1.193c-.983-1.056-1.9-2.171-2.848-3.261q-1.969-2.269-3.939-4.535a7.11,7.11,0,0,1-.487-.527,1.237,1.237,0,0,1,.252-1.534,1.009,1.009,0,0,1,1.323-.144,6.411,6.411,0,0,1,1.208,1.153q1.761,2.136,3.468,4.319a12.509,12.509,0,0,0,2.685,2.672,4.959,4.959,0,0,0,.37-1.126,11.605,11.605,0,0,0-.686-4.732,10.034,10.034,0,0,1-.5-2.092,1.17,1.17,0,0,1,.642-1.2,1.2,1.2,0,0,1,1.358.078,12,12,0,0,1,1.653,1.394c2.857,3.077,6.4,5.347,9.493,8.15a3.6,3.6,0,0,0,.946.4,6.893,6.893,0,0,0-.5-3.2c-.316-.824-.661-1.639-.936-2.476a7.572,7.572,0,0,1-.348-1.637,1.2,1.2,0,0,1,1-1.176,1.1,1.1,0,0,1,1.176.646c.166.36.225.768.372,1.14.111.286.215.7.438.8.893.4,1.219,1.242,1.673,1.985q2.694,4.411,5.372,8.832a1.184,1.184,0,0,1-.021,1.54,1.255,1.255,0,0,1-1.745.018,6.99,6.99,0,0,1-1.192-1.769,22.4,22.4,0,0,0-2.384-4.225c-.145.6-.209.934-.307,1.258-.319,1.034-.937,1.546-1.907,1.411a4.743,4.743,0,0,1-1.792-.616,17.846,17.846,0,0,1-2.083-1.628c-2.332-1.961-4.653-3.935-6.982-5.9C6458.857,480.917,6458.761,480.935,6458.423,480.9Z" transform="translate(-6347.393 -453.521)" fill="#231f20" fill-rule="evenodd"/>
      <path id="パス_2858" data-name="パス 2858" d="M6474.407,13.4a8.24,8.24,0,0,0-5.359-3.387c-.635-.086-1.27-.183-1.9-.308a8.038,8.038,0,0,0-4.5.2,6.8,6.8,0,0,1-2.345.415,1.419,1.419,0,0,1-1.3-2.185c.458-.931,1-1.818,1.479-2.742a8.749,8.749,0,0,0,.4-1.162,14.282,14.282,0,0,0-10.971,2.887,37.914,37.914,0,0,0-3.617,3.5,7.836,7.836,0,0,1-.645.7,1.157,1.157,0,0,1-1.708-.709,1.916,1.916,0,0,1,.587-1.743c3.165-3.455,6.865-6.122,11.552-6.906a45.678,45.678,0,0,1,6.957-.151,1.724,1.724,0,0,1,.469.1c1.489.42,1.85,1.565.834,2.706-.426.478-.942.876-1.349,1.366a6.3,6.3,0,0,0-.59,1.224c.618-.032,1-.035,1.367-.074a21.421,21.421,0,0,1,7.358.916,10.078,10.078,0,0,1,3.721,2.133,25.22,25.22,0,0,1,3.494,3.61c.784.961.4,1.876-.836,2.118a36.243,36.243,0,0,1-3.814.426.992.992,0,0,1-1.128-.7,1.277,1.277,0,0,1,.417-1.515A10.57,10.57,0,0,1,6474.407,13.4Z" transform="translate(-6344.736 -1.747)" fill="#231f20" fill-rule="evenodd"/>
      <path id="パス_2859" data-name="パス 2859" d="M6464.235,1442.565l-12.8.544a14.143,14.143,0,0,0,2.961,6.088,5.023,5.023,0,0,0,1.979,1.323,3.969,3.969,0,0,0,4.463-.753A10.322,10.322,0,0,0,6464.235,1442.565Zm-6.572,10.865a7.393,7.393,0,0,1-5.792-3.447,40.008,40.008,0,0,1-2.531-5.178,25.17,25.17,0,0,1-.928-2.725,1.316,1.316,0,0,1,1.261-1.836c.314-.014.631.092.949.108,1.358.071,2.718.225,4.073.173,3.287-.127,6.57-.353,9.856-.535a6.082,6.082,0,0,1,.959,0,1.48,1.48,0,0,1,1.476,1.79c-.5,3.109-1.165,6.151-3.33,8.632A7.371,7.371,0,0,1,6457.663,1453.43Z" transform="translate(-6348.95 -1372.517)" fill="#231f20" fill-rule="evenodd"/>
      <path id="パス_2860" data-name="パス 2860" d="M7645.976,2550.711v-2.165c0-1.24.485-2.028,1.245-1.931.784.1,1.282.647,1.165,2.03-.066.8-.01,1.609-.1,2.4q-.941,8.485-1.935,16.965a5.387,5.387,0,0,1-.57,1.814.993.993,0,0,1-1.229.5,1.131,1.131,0,0,1-.87-1.034,4.54,4.54,0,0,1,.177-1.173,127.892,127.892,0,0,0,2.026-14.523c.108-.954.108-1.921.158-2.882Z" transform="translate(-7488.247 -2427.254)" fill="#231f20" fill-rule="evenodd"/>
      <path id="パス_2861" data-name="パス 2861" d="M5594.824,2590.2a49.615,49.615,0,0,0-.719-8.068q-.442-3.579-.754-7.176a6.23,6.23,0,0,1,.2-1.894,1.143,1.143,0,0,1,1.351-.728,1.1,1.1,0,0,1,.871,1.013.88.88,0,0,1,0,.24c-.52,3.392.209,6.713.539,10.061.236,2.392.4,4.793.517,7.194.083,1.765-.008,3.541.926,5.148a1.212,1.212,0,0,1,.1.463,1.347,1.347,0,0,1-.872,1.308,1.119,1.119,0,0,1-1.28-.439,5.291,5.291,0,0,1-.877-2.952C5594.8,2593.166,5594.824,2591.961,5594.824,2590.2Z" transform="translate(-5534.062 -2451.747)" fill="#231f20" fill-rule="evenodd"/>
      <path id="パス_2862" data-name="パス 2862" d="M6141.806,579.561c-.881-.006-1.542-.9-1.222-1.558a6.589,6.589,0,0,1,1.188-1.785,41.519,41.519,0,0,0,7.914-11.981,5.092,5.092,0,0,1,.941-1.356.9.9,0,0,1,1.115-.112,1.1,1.1,0,0,1,.67,1.161,2.674,2.674,0,0,1-.336.887c-2.416,4.345-4.729,8.756-8.149,12.449-.484.523-.8,1.205-1.265,1.748A3.062,3.062,0,0,1,6141.806,579.561Z" transform="translate(-6055.565 -536.324)" fill="#231f20" fill-rule="evenodd"/>
      <path id="パス_2863" data-name="パス 2863" d="M6261.944,55.824a4.138,4.138,0,0,0-2.83,3.832c-.041.557.084,1.128.02,1.679a1.018,1.018,0,0,1-.946.935,1.089,1.089,0,0,1-1.2-.6,2.6,2.6,0,0,1-.292-.91,6.909,6.909,0,0,1,2.341-6.053,17.981,17.981,0,0,1,2.769-1.917c1.247-.732,2.351-.122,2.636,1.351.18.937.387,1.869.6,2.8a1.083,1.083,0,0,1-.414,1.27,1.367,1.367,0,0,1-1.755-.221,5.034,5.034,0,0,1-.566-1.049C6262.181,56.656,6262.11,56.345,6261.944,55.824Z" transform="translate(-6166.281 -50.104)" fill="#231f20" fill-rule="evenodd"/>
      <path id="パス_2864" data-name="パス 2864" d="M5077.837,770.919c.072-.345.141-.822.275-1.278.834-2.835,1.671-5.667,2.537-8.493a4.287,4.287,0,0,1,.715-1.475,1.369,1.369,0,0,1,1.063-.334.949.949,0,0,1,.866.985,6.112,6.112,0,0,1-.25,1.641c-.909,2.977-1.847,5.947-2.792,8.915a2.5,2.5,0,0,1-.52,1.054,1.353,1.353,0,0,1-1.038.374c-.309-.072-.553-.492-.786-.792C5077.825,771.41,5077.866,771.209,5077.837,770.919Z" transform="translate(-5042.739 -723.801)" fill="#231f20" fill-rule="evenodd"/>
      <path id="パス_2865" data-name="パス 2865" d="M4760.86,772.191a1.258,1.258,0,0,1-1.173,1.545c-.648.031-1.169-.531-1.276-1.484q-.584-5.142-1.09-10.294a1.183,1.183,0,0,1,1.105-1.329,1.258,1.258,0,0,1,1.405,1.034c.141.789.2,1.593.276,2.391C4760.356,766.693,4760.6,769.331,4760.86,772.191Z" transform="translate(-4737.249 -725.032)" fill="#231f20" fill-rule="evenodd"/>
      <path id="パス_2866" data-name="パス 2866" d="M4380.555,882.68c-.006,1-.7,1.56-1.345,1.338a2.791,2.791,0,0,1-1.174-.75q-3.212-3.74-6.355-7.539a1.116,1.116,0,0,1-.094-1.529,1.327,1.327,0,0,1,1.733-.287,5.309,5.309,0,0,1,1.045.973c1.814,2.143,3.621,4.288,5.4,6.46A8.4,8.4,0,0,1,4380.555,882.68Z" transform="translate(-4369.364 -832.812)" fill="#231f20" fill-rule="evenodd"/>
      <path id="パス_2867" data-name="パス 2867" d="M6302.8,893.246a3.85,3.85,0,0,1,3.3,1,1.269,1.269,0,0,1,.453,1.481,1.149,1.149,0,0,1-1.614.574,6.1,6.1,0,0,0-3.488-.465,4.013,4.013,0,0,0-2.974,1.289,1.066,1.066,0,0,1-1.667.2,1.35,1.35,0,0,1-.125-1.934,5.263,5.263,0,0,1,3.465-1.932C6300.935,893.322,6301.74,893.324,6302.8,893.246Z" transform="translate(-6204.094 -851.377)" fill="#231f20" fill-rule="evenodd"/>
      <path id="パス_2868" data-name="パス 2868" d="M6740.119,1028.532a4.088,4.088,0,0,1,3.918,4.035,1.265,1.265,0,0,1-.9,1.254,1.088,1.088,0,0,1-1.206-.577c-.325-.543-.538-1.155-.885-1.681a1.215,1.215,0,0,0-1.872-.214,19.338,19.338,0,0,0-1.327,1.668,1.07,1.07,0,0,1-1.284.351,1.183,1.183,0,0,1-.761-1.115,1.593,1.593,0,0,1,.046-.473A5.038,5.038,0,0,1,6740.119,1028.532Z" transform="translate(-6622.941 -980.376)" fill="#231f20" fill-rule="evenodd"/>
      <path id="パス_2869" data-name="パス 2869" d="M6745.09,871c1.114.236,2.126.413,3.113.68a2.4,2.4,0,0,1,.989.632,1.126,1.126,0,0,1-.885,1.958,3.723,3.723,0,0,1-.921-.228,5.65,5.65,0,0,0-5.047.315,1.82,1.82,0,0,1-.66.252.989.989,0,0,1-1.184-.576,1.372,1.372,0,0,1-.006-1.091,3.568,3.568,0,0,1,1.437-1.166A28.184,28.184,0,0,1,6745.09,871Z" transform="translate(-6627.306 -830.233)" fill="#231f20" fill-rule="evenodd"/>
      <path id="パス_2870" data-name="パス 2870" d="M6349.227,1058.838c2.238-.043,3.6.869,4.133,2.47a1.178,1.178,0,0,1-.463,1.468,1.213,1.213,0,0,1-1.524-.276c-.113-.109-.18-.266-.291-.38-1.153-1.2-2.4-1.133-3.355.193-.139.193-.217.433-.368.614a1.071,1.071,0,0,1-1.3.313,1.107,1.107,0,0,1-.735-1.136,2.848,2.848,0,0,1,1.776-2.643A16.868,16.868,0,0,1,6349.227,1058.838Z" transform="translate(-6250.779 -1009.26)" fill="#231f20" fill-rule="evenodd"/>
      <path id="パス_2871" data-name="パス 2871" d="M6595.677,1340.131a4.092,4.092,0,0,1-1.251-.271,1.514,1.514,0,0,1-.629-.927.992.992,0,0,1,.664-1.141,3.251,3.251,0,0,1,2.558.01,1.818,1.818,0,0,1,.751,1.105c.129.477-.446,1.045-1.007,1.132C6596.45,1340.089,6596.13,1340.094,6595.677,1340.131Z" transform="translate(-6487.577 -1274.887)" fill="#231f20" fill-rule="evenodd"/>
      <path id="パス_2872" data-name="パス 2872" d="M4720.286,2078.011a1.869,1.869,0,0,1-.215.764,1.735,1.735,0,0,1-.909.649.925.925,0,0,1-1.074-.743c-.09-.3-.064-.637-.135-.947a5.738,5.738,0,0,0-.5-1.838,60.554,60.554,0,0,0-3.621-5.08,5.886,5.886,0,0,0-2.035-1.195c-.572-.28-1.207-.431-1.782-.706a1.158,1.158,0,0,1-.616-1.409,1.124,1.124,0,0,1,1.349-.723,10.292,10.292,0,0,1,4.453,2.269,10.032,10.032,0,0,1,1.282,1.431c.858,1.161,1.673,2.354,2.5,3.536A8.2,8.2,0,0,1,4720.286,2078.011Z" transform="translate(-4691.529 -1969.899)" fill="#231f20" fill-rule="evenodd"/>
    </g>
    <rect id="長方形_4868" data-name="長方形 4868" width="240" height="202" transform="translate(1062 3410)" fill="none"/>
  </g>
</svg>
