<svg xmlns="http://www.w3.org/2000/svg" width="240" height="202" viewBox="0 0 240 202">
  <g id="top-goodpoint-2" transform="translate(-748 -3471)">
    <g id="グループ_1937" data-name="グループ 1937" transform="translate(811.545 3521.205)">
      <g id="グループ_1935" data-name="グループ 1935" transform="translate(0 0)">
        <g id="グループ_1933" data-name="グループ 1933" transform="translate(2.292 1.493)">
          <path id="パス_2766" data-name="パス 2766" d="M1020.468,442.266c1.034-5.129,1.007-10.513.995-15.723-.024-10.169-1.076-20.307-1.12-30.467a3.179,3.179,0,0,0-3.146-3.146c-2.616,0-3.454,1.019-5.177,2.864a25.974,25.974,0,0,1-3.416,3c-5.809-1.516-15.547,8.994-16.463,13.434a3.127,3.127,0,0,0,.315,2.217c-4.23,9.551-1.914,20.754-3.185,31.09l31.255-.419A11.516,11.516,0,0,1,1020.468,442.266Z" transform="translate(-989.27 -295.272)" fill="#2abc8f"/>
          <path id="パス_2767" data-name="パス 2767" d="M1279.846,430.435a36.819,36.819,0,0,0-.384-11.394c1.381-7.158-1.9-15.544-8.874-18.267a4.079,4.079,0,0,0-.4-.129c-.123-.129-.237-.264-.362-.389-3.521-4.6-8.224-8-14.414-8.874a3.088,3.088,0,0,0-2.358-1.291c-.234-.111-.464-.225-.713-.327-1.594-.641-3.454.686-3.871,2.2a2.991,2.991,0,0,0,1.145,3.272v46.906l31.219-.419C1280.619,437.958,1280.313,434.186,1279.846,430.435Z" transform="translate(-1170.729 -292.939)" fill="#2abc8f"/>
          <path id="パス_2768" data-name="パス 2768" d="M1117.453,106.334a7.457,7.457,0,0,0-.417-1.273c-4.233-13.1-12.35-41.639-29.676-37.322-2.765-1-5.354-1.153-7.125.392a2.557,2.557,0,0,0-3.146-.908c-1.216.476-2.5.941-3.781,1.447-16.76,1.684-22.195,25.8-26.521,39.758-1.091,3.52,3.871,5.342,5.749,2.424.135-.21.267-.422.4-.641a3.472,3.472,0,0,0,1.411-.33c4.227-2,4.641-6.633,6.582-10.357a3.3,3.3,0,0,0-.342-3.523c4.054-7.8,9.935-14.561,18.594-17.263a3,3,0,0,0,1.891-1.582c.069.006.138.015.21.018,6.771.165,12.371,4.982,16.493,9.932,4.171,5.006,7.283,11.769,6.786,18.381-.225,2.981,3.472,3.832,5.369,2.223.6-.512,1.115-.539,1.36,0a2.92,2.92,0,0,0,.093.288C1116.4,118.222,1118.337,110.3,1117.453,106.334Z" transform="translate(-1029.447 -66.976)" fill="#c7c7c7"/>
          <path id="パス_2769" data-name="パス 2769" d="M1236.667,269.34c-8.236-10.573,3.553-32.1-1.207-48.123-.986-3.314-1.375,5.8-5.666,7.322-.716.255-.354,1.468-.587,2.175-1.885-.5-4.045.437-3.721,2.855.464,3.466-1.282,5.4-3.562,7.775-2.532,2.637-4.749,5.351-5.432,9.039a12.018,12.018,0,0,0,2.625,9.725c.033.072.051.144.09.213,2.831,5.321,7.409,8.841,12.874,11.2C1235.438,272.968,1238.911,272.219,1236.667,269.34Z" transform="translate(-1148.277 -174.501)" fill="#c7c7c7"/>
          <path id="パス_2770" data-name="パス 2770" d="M1071.943,273.759a9.234,9.234,0,0,0-1.534-3.775c-2.367-3.143-6.532-5.2-8.176-8.835-1.588-3.508-3.251-6.825-6.166-9.432a3.494,3.494,0,0,0-1.657-.863c-.632-3.469-6.307-3.29-6.232.569.132,6.681,2.909,13.213,4.6,19.594,1.237,4.662,1.492,13-1.558,17.254a9.679,9.679,0,0,0-1.285,1.192c-2.568,2.493.746,6.8,3.811,4.94a15.326,15.326,0,0,0,4.23-3.676c1.2-.995,2.421-1.962,3.628-2.936a3.187,3.187,0,0,0,3.266-.59c2.96-2.7,5.237-5.63,5.824-8.805.018-.039.036-.078.051-.117s.045-.066.069-.1l-.018-.009c.114-.246.23-.488.335-.743C1071.634,276.219,1072.689,274.445,1071.943,273.759Z" transform="translate(-1030.528 -194.033)" fill="#c7c7c7"/>
        </g>
        <g id="グループ_1934" data-name="グループ 1934">
          <path id="パス_2771" data-name="パス 2771" d="M1094.97,196.818a61.12,61.12,0,0,0-2.442-16.826,18.979,18.979,0,0,0-5.222-9.06,11.475,11.475,0,0,1-.878-.95,23.217,23.217,0,0,0-6.927-5.342c-1.145-.59-2.28-1.2-3.284-1.723-.68-1.408-1.234-2.672-1.891-3.883a25.437,25.437,0,0,1-3.227-10,43.266,43.266,0,0,1,.237-12.1c.261-1.354.557-2.7.848-4.051A69.075,69.075,0,0,0,1074,118.8a86.253,86.253,0,0,0-.509-10.588,92.806,92.806,0,0,0-4.323-19.663,61.927,61.927,0,0,0-9.153-17.6,23.05,23.05,0,0,0-13.207-8.53,19.1,19.1,0,0,0-8.964.264,1.266,1.266,0,0,0,.455,2.49,22.189,22.189,0,0,0,2.3-.321,13.823,13.823,0,0,1,5.653.084,20.07,20.07,0,0,1,11.556,7.355,55.473,55.473,0,0,1,3.616,5.354,70.191,70.191,0,0,1,8.359,23.246c.512,2.789.887,5.6,1.321,8.4h0c0,.006,0,.015,0,.021q.117,2.058.234,4.114a67.169,67.169,0,0,1-1.714,18.992c-.273,1.174-.539,2.352-.782,3.532a46.635,46.635,0,0,0-.348,13.374,27.1,27.1,0,0,0,3.248,10.54,1.586,1.586,0,0,1,.129.491c.012.072-.045.153-.1.324a5.415,5.415,0,0,1-2.085-.683c-.719-.285-1.444-.563-2.16-.863a7.56,7.56,0,0,0-.929-.449c-2.7-.692-3.8-2.876-4.5-5.189a34.722,34.722,0,0,1-1.3-15.316c.644-4.425.845-8.913,1.21-13.377.111-1.36.123-2.729.186-4.138.587-.111,1-.2,1.414-.261a8.713,8.713,0,0,0,7.179-8.035c.057-1.022.21-2.037.318-3.059v-.024c-.452-.12-.629-.437-.809-.866a25.884,25.884,0,0,0-1.648-3.454,4.639,4.639,0,0,0-3.3-2.223,3.82,3.82,0,0,0-2.915.686,2.647,2.647,0,0,0-1.354,2.493.452.452,0,0,0,.066.033c0,.027-.006.054-.009.081,1.381.791,1.4.782,2.565-.138a1.617,1.617,0,0,1,2.478.075,6.37,6.37,0,0,1,1.01,1.48,9.4,9.4,0,0,1,.9,5.276,5.624,5.624,0,0,1-4.572,4.92,2.648,2.648,0,0,1-.767-.051,3.025,3.025,0,0,1-.581-.288c-.123-1.013-.249-2.109-.389-3.206-.264-2.046-.566-4.087-.782-6.139a10.05,10.05,0,0,1,.138-1.929.463.463,0,0,1-.051-.03c0-.027,0-.057-.006-.084-.632-.315-.545-.965-.626-1.519-.965-6.54-2.625-12.82-6.4-18.4a31.277,31.277,0,0,0-8.215-8.847c-1.432-.962-2.867-1.917-4.332-2.828a4.654,4.654,0,0,0-3.188-.824,1.282,1.282,0,0,0-1.136,1.207A1.146,1.146,0,0,0,1038,75.9c3.182.824,5.641,2.87,8.194,4.761a10.212,10.212,0,0,1,1.537,1.381c4.557,5.108,7.969,10.84,9.18,17.668.812,4.581,1.408,9.2,2.178,13.788a21.382,21.382,0,0,1-.485,9.429,36.632,36.632,0,0,1-8.569,14.869,15.385,15.385,0,0,1-11.5,5.087,24.627,24.627,0,0,1-13.749-3.874,16.71,16.71,0,0,1-6.019-6.3,29.071,29.071,0,0,1-2.3-5.186c-.887-2.876-1.42-5.863-2.277-8.751a30.131,30.131,0,0,1-.773-11.283,44.085,44.085,0,0,1,.569-4.62,39.465,39.465,0,0,1,4.162-12.176,58.829,58.829,0,0,1,6.037-8.389,10.417,10.417,0,0,1,2.319-2.043c2.02-1.315,4.111-2.52,6.172-3.769a3.682,3.682,0,0,0,1.079-.68,1.828,1.828,0,0,0,.3-1.171,1,1,0,0,0-1.085-.9,3.44,3.44,0,0,0-1.468.392,39.708,39.708,0,0,0-3.613,2.013c-2.163,1.411-4.4,2.747-6.031,4.83-1.064,1.357-2.124,2.717-3.149,4.108a40.028,40.028,0,0,0-7.439,19.061c-.063.482-.219.953-.363,1.552a7.712,7.712,0,0,1-1.105-.279,3.8,3.8,0,0,0-4.512.812,7.433,7.433,0,0,1-1.261.755c.057-1.243.042-2.187.153-3.116.267-2.226.509-4.458.9-6.663a53.691,53.691,0,0,1,8.125-20.817c4.854-7.194,11.565-11.175,20.421-11.124a4.975,4.975,0,0,0,1.771-.225,1.345,1.345,0,0,0,.677-.974,1.65,1.65,0,0,0-.491-1.091,1.389,1.389,0,0,0-.935-.333,28.69,28.69,0,0,0-5.159.171,27.251,27.251,0,0,0-17.141,10.244,44.572,44.572,0,0,0-4.641,7.76,65.785,65.785,0,0,0-6.226,25.458,99.508,99.508,0,0,0,2.292,26.989,59.1,59.1,0,0,1,1.375,15.4c-.258,6.19-1.927,11.879-6.232,16.583a10.422,10.422,0,0,1-2.484,2.2c-3.589,2.046-6.217,5.159-8.853,8.242a8.18,8.18,0,0,0-1.267,2.241,46.212,46.212,0,0,0-3.041,10.666,102.125,102.125,0,0,0-.935,11.322c-.15,4.623-.44,9.24-.722,13.857l3.155-.042c.219-5.408.386-10.816.608-16.221a60.575,60.575,0,0,1,1.906-13.53,21.062,21.062,0,0,1,5.662-9.956,28.216,28.216,0,0,1,6.552-4.991,138.833,138.833,0,0,1,12.967-5.824,2.612,2.612,0,0,1,.836-.012c.063.518.171,1.016.183,1.516.087,3.622.168,7.244.222,10.87.012.86-.09,1.72-.111,2.583-.06,2.412-.276,4.836-.12,7.238.407,6.379.3,12.76.3,19.142,0,.776-.075,1.549-.093,2.325q-.081,3.24-.147,6.477l2.693-.036c.057-2.759.114-5.519.09-8.278-.048-5.863-.24-11.727-.279-17.59-.042-6.211.018-12.422.051-18.629a4.117,4.117,0,0,1,.27-.989,8.089,8.089,0,0,1,1.067-.174c6.726-.111,13.452-.195,20.178-.324,4.054-.078,8.1-.243,12.155-.333,3.1-.069,6.2-.1,9.309-.1a7.736,7.736,0,0,1,1.543.333c0,.9,0,1.66,0,2.43-.012,4.659-.216,9.327,0,13.974.359,7.673.446,15.346.47,23.025.006,2.019.1,4.042.207,6.061l2.7-.036q-.023-.957-.048-1.914c-.075-2.669-.219-5.339-.276-8.008-.09-4.311.066-8.638-.24-12.934-.447-6.292-.348-12.586-.435-18.881-.024-1.723.048-3.451.117-5.174.033-.773.159-1.543.264-2.313.114-.821.252-1.639.384-2.475a3.4,3.4,0,0,1,.938.066c4.09,1.825,8.17,3.676,12.26,5.507,4.308,1.929,7.433,5.252,10.321,8.826a8.676,8.676,0,0,1,1.39,2.466,48.088,48.088,0,0,1,2.747,10.483,125.477,125.477,0,0,1,.776,12.64q.13,5.663.234,11.328l2.75-.036Q1095.1,204.537,1094.97,196.818Zm-42.206-57.743c.608-.806,1.3-1.678,1.944-2.58.7-.977,1.351-1.992,2.055-2.966a13.863,13.863,0,0,1,2.049-2.867,14.759,14.759,0,0,1-.048,3.826c-.111,1.369-.305,2.732-.521,4.09a31.441,31.441,0,0,0,.362,11.523c.279,1.33.536,2.664.824,4.111-.419-.1-.725-.084-.89-.228a13.8,13.8,0,0,1-4.967-7.907A24.582,24.582,0,0,1,1052.764,139.075Zm-47.239-27.929a3.937,3.937,0,0,1,1.183-2.52c.563-.539,1.133-1.091,2.037-.7a2.3,2.3,0,0,1,1.648,2.094c.084,2.232.177,4.464.243,6.7.03,1.016.006,2.031.006,3.413-2.346-1.144-3.338-2.981-4.407-4.719A6.6,6.6,0,0,1,1005.526,111.146Zm7.182,46.4c-1.225,2.358-2.747,4.072-5.4,4.695-1.046.246-1.957.956-3.356,1.249.464-1.219.767-2.175,1.183-3.08,2.358-5.15,2.768-10.588,2.649-16.164-.1-4.6-1.153-9.036-1.906-13.53-.653-3.907-1.15-7.838-1.7-11.757a8.509,8.509,0,0,1,.069-1.3c2.148,2.319,3.559,4.982,6.672,5.4a6.714,6.714,0,0,1,.318,1.109,67.554,67.554,0,0,0,2.28,10.861c.407,1.582.8,3.17,1.228,4.749a27.985,27.985,0,0,1,.8,7.167A22.225,22.225,0,0,1,1012.707,157.543Zm3.284.21a9.457,9.457,0,0,1,.345-1.489,26.991,26.991,0,0,0,1.819-11.388c-.081-2.882-.962-5.588-1.513-8.365-.147-.746-.386-1.474-.581-2.211a29.967,29.967,0,0,0,8.527,7.88C1025.431,149.082,1021.563,155.7,1015.991,157.752Zm44.857,5.905a2.761,2.761,0,0,1-.294.312.481.481,0,0,1-.231.1c-.686.048-1.369.111-2.055.129-13.788.354-27.564,1.18-41.364.809-.153,0-.3-.141-.455-.216a1.469,1.469,0,0,1-.192-.467c-.018-.938-.009-1.876-.009-2.975,1.09-.689,2.271-1.39,3.4-2.16a17.121,17.121,0,0,0,6.729-8.6,34.771,34.771,0,0,0,.992-4.794c.114-.575.216-1.153.356-1.905.6.153,1.07.273,1.543.4,1.582.416,3.149.9,4.746,1.243a18.957,18.957,0,0,0,14.141-2.583c.506-.306,1.007-.626,1.543-.959.644.473.464,1.133.6,1.666a14.978,14.978,0,0,1,.323,1.78c.611,5.045,3.338,8.766,7.325,11.685.9.659,1.875,1.213,2.909,1.873A13.675,13.675,0,0,1,1060.848,163.658Z" transform="translate(-981.62 -61.993)" fill-rule="evenodd"/>
          <path id="パス_2772" data-name="パス 2772" d="M1246.907,208.744l.009-.081a.449.449,0,0,1-.066-.033c0,.027,0,.054.006.084C1246.874,208.726,1246.889,208.732,1246.907,208.744Z" transform="translate(-1167.386 -164.697)" fill-rule="evenodd"/>
          <path id="パス_2773" data-name="パス 2773" d="M1280.32,219.891c0-.006,0-.015,0-.021h0v.021Z" transform="translate(-1190.828 -172.569)" fill-rule="evenodd"/>
          <path id="パス_2774" data-name="パス 2774" d="M1146.754,277.587q3.865-.126,7.733-.249a1.4,1.4,0,0,1,1.486,1.438,1.979,1.979,0,0,1-.027.515,18.03,18.03,0,0,1-3.832,7.811,6.622,6.622,0,0,1-3.308,1.929,10.338,10.338,0,0,1-5.372.024,4.333,4.333,0,0,1-1.837-.881,23.908,23.908,0,0,1-4.365-4.734,9.35,9.35,0,0,1-1.456-3.832,1.37,1.37,0,0,1,1.168-1.711,13.01,13.01,0,0,1,2.307-.252c2.5-.033,5-.012,7.5-.012C1146.751,277.617,1146.751,277.6,1146.754,277.587Zm-7.921,2.711a5.3,5.3,0,0,0,.231,1.237,17.206,17.206,0,0,0,4.14,4.533,2.182,2.182,0,0,0,.935.392c3.437.812,5.842-.231,7.574-3.32a4.329,4.329,0,0,0,.863-2.993C1148.055,280.233,1143.6,279.933,1138.833,280.3Z" transform="translate(-1089.578 -212.819)" fill-rule="evenodd"/>
          <path id="パス_2775" data-name="パス 2775" d="M1034.926,505.524q-.333-6.714-.653-13.428l.063-.009c0-2.5.009-5-.009-7.5a5.262,5.262,0,0,0-.195-1.519,1.135,1.135,0,0,0-1.2-.794,1.054,1.054,0,0,0-1.088.914,9.43,9.43,0,0,0-.111,2.052c.306,5.594-.033,11.2.524,16.8.195,1.951.222,3.919.231,5.887l2.571-.036C1035.013,507.106,1034.965,506.315,1034.926,505.524Z" transform="translate(-1016.71 -356.358)" fill-rule="evenodd"/>
          <path id="パス_2776" data-name="パス 2776" d="M1299.933,497.831a104.949,104.949,0,0,1,.222-12.655,5.275,5.275,0,0,0-.027-1.285,1.436,1.436,0,0,0-1.192-1.192,1.34,1.34,0,0,0-1.312,1.312,4.209,4.209,0,0,0-.036.515c-.066,2.412-.186,4.821-.189,7.232-.006,5.135.045,10.274.075,15.409l2.672-.036C1300.056,504.027,1299.951,500.929,1299.933,497.831Z" transform="translate(-1202.789 -356.649)" fill-rule="evenodd"/>
          <path id="パス_2777" data-name="パス 2777" d="M1116.226,184.563a4.7,4.7,0,0,1,3.772,1.372,1.263,1.263,0,0,1,.192,1.636,1.172,1.172,0,0,1-1.567.461,5.7,5.7,0,0,0-4.221-.485,3.663,3.663,0,0,0-2.705,1.27,1.642,1.642,0,0,1-.611.443,1.232,1.232,0,0,1-1.627-.8,1.707,1.707,0,0,1,.4-1.669,4.768,4.768,0,0,1,2.574-1.606C1113.691,184.935,1114.961,184.77,1116.226,184.563Z" transform="translate(-1071.108 -147.829)" fill-rule="evenodd"/>
          <path id="パス_2778" data-name="パス 2778" d="M1188.757,181.53a6.123,6.123,0,0,1,4.422,1.225,1.17,1.17,0,0,1,.347,1.4,1.33,1.33,0,0,1-1.462.791c-.41-.108-.788-.336-1.2-.437a10.927,10.927,0,0,0-1.747-.324,5.06,5.06,0,0,0-2.972.614,3.734,3.734,0,0,1-1.183.437,1.136,1.136,0,0,1-1.2-1.5,2.773,2.773,0,0,1,.926-1.159A6.386,6.386,0,0,1,1188.757,181.53Z" transform="translate(-1123.143 -145.701)" fill-rule="evenodd"/>
          <path id="パス_2779" data-name="パス 2779" d="M1192.037,212.169a1.467,1.467,0,0,1,1.375.935,2.491,2.491,0,0,1-.9,2.918,1.385,1.385,0,0,1-1.654-.033,2.239,2.239,0,0,1-.9-2.217A2.423,2.423,0,0,1,1192.037,212.169Z" transform="translate(-1127.502 -167.175)" fill-rule="evenodd"/>
          <path id="パス_2780" data-name="パス 2780" d="M1131.384,214.96a6.154,6.154,0,0,1-.066.665,1.747,1.747,0,0,1-1.471,1.546,1.723,1.723,0,0,1-1.84-1.429,2.22,2.22,0,0,1,1.175-2.565C1130.2,212.683,1131.357,213.573,1131.384,214.96Z" transform="translate(-1084.095 -167.785)" fill-rule="evenodd"/>
          <path id="パス_2781" data-name="パス 2781" d="M1161.3,262.626a10.979,10.979,0,0,1-1.2-.234,1.178,1.178,0,0,1-.857-1.153,1.087,1.087,0,0,1,.8-1.18,9.015,9.015,0,0,1,2.508-.069,1.29,1.29,0,0,1,.992,1.33,1.322,1.322,0,0,1-1.166,1.183C1162.042,262.566,1161.7,262.581,1161.3,262.626Z" transform="translate(-1106.021 -200.629)" fill-rule="evenodd"/>
        </g>
      </g>
      <g id="グループ_1936" data-name="グループ 1936" transform="translate(114.993 28.495)">
        <path id="パス_2782" data-name="パス 2782" d="M1374.5,221.019c-1.282.075-2.568.1-3.844.237a18.889,18.889,0,0,0-2.762.533,2.823,2.823,0,0,0-1.079.656,1.161,1.161,0,0,0-.276,1.408,1.057,1.057,0,0,0,1.255.665c3.26-.938,6.627-.65,9.944-.938a5.673,5.673,0,0,0,1.489-.306,1.167,1.167,0,0,0,.749-1.225,1.223,1.223,0,0,0-.89-1.135,3.7,3.7,0,0,0-1.258-.144c-1.112.045-2.22.144-3.332.219A.1.1,0,0,1,1374.5,221.019Z" transform="translate(-1366.124 -201.691)" fill-rule="evenodd"/>
        <path id="パス_2783" data-name="パス 2783" d="M1366.43,165.216c-.1,1.067.785,1.834,1.495,1.534a4.454,4.454,0,0,0,1.273-.827q3.124-2.867,6.193-5.788a4.671,4.671,0,0,0,.9-1.213,1.311,1.311,0,0,0-.459-1.594,1.336,1.336,0,0,0-1.456-.024,3.031,3.031,0,0,0-.6.476c-2.172,2.064-4.353,4.12-6.5,6.211A6.407,6.407,0,0,0,1366.43,165.216Z" transform="translate(-1366.125 -157.1)" fill-rule="evenodd"/>
        <path id="パス_2784" data-name="パス 2784" d="M1365.435,264.911a5.8,5.8,0,0,0,1,1.085c2.2,1.522,4.428,2.993,6.648,4.479a7.212,7.212,0,0,0,.881.539,2,2,0,0,0,.74.2,1.088,1.088,0,0,0,1.24-.707,1.65,1.65,0,0,0-.093-1.2,3.649,3.649,0,0,0-1.133-1.022q-3.357-2.193-6.75-4.326a4.5,4.5,0,0,0-1.169-.521C1366.142,263.257,1365.387,263.925,1365.435,264.911Z" transform="translate(-1365.433 -231.558)" fill-rule="evenodd"/>
      </g>
    </g>
    <rect id="長方形_4867" data-name="長方形 4867" width="240" height="202" transform="translate(748 3471)" fill="none"/>
  </g>
</svg>
